<svg width="11" height="8" viewBox="0 0 11 8" fill="none" xmlns="http://www.w3.org/2000/svg">
<path fill-rule="evenodd" clip-rule="evenodd" d="M10.7697 0.234239C10.9172 0.384268 11 0.587723 11 0.799863C11 1.012 10.9172 1.21546 10.7697 1.36549L4.47842 7.76576C4.33094 7.91574 4.13095 8 3.92242 8C3.71389 8 3.5139 7.91574 3.36642 7.76576L0.220756 4.56562C0.0775043 4.41474 -0.00176206 4.21265 2.97286e-05 4.00288C0.00182152 3.79311 0.0845281 3.59245 0.230336 3.44412C0.376144 3.29579 0.573387 3.21165 0.779583 3.20983C0.985779 3.208 1.18443 3.28864 1.33275 3.43438L3.92242 6.06889L9.65776 0.234239C9.80523 0.084256 10.0052 0 10.2138 0C10.4223 0 10.6223 0.084256 10.7697 0.234239Z" fill="currentColor"/>
</svg>
