<svg width="16" height="16" viewBox="0 0 16 16" fill="none" xmlns="http://www.w3.org/2000/svg">
<path fill-rule="evenodd" clip-rule="evenodd" d="M8.63458 4.23423C8.48461 4.38425 8.40035 4.5877 8.40035 4.79983C8.40035 5.01196 8.48461 5.21541 8.63458 5.36543L11.269 7.99983L8.63458 10.6342C8.48886 10.7851 8.40822 10.9872 8.41004 11.1969C8.41187 11.4067 8.496 11.6074 8.64433 11.7557C8.79265 11.904 8.9933 11.9881 9.20306 11.99C9.41282 11.9918 9.6149 11.9112 9.76578 11.7654L12.9658 8.56543C13.1158 8.41541 13.2 8.21196 13.2 7.99983C13.2 7.7877 13.1158 7.58425 12.9658 7.43423L9.76578 4.23423C9.61576 4.08425 9.41231 4 9.20018 4C8.98805 4 8.78461 4.08425 8.63458 4.23423Z" fill="url(#paint0_linear_1793_19828)"/>
<path fill-rule="evenodd" clip-rule="evenodd" d="M3.83496 4.23423C3.68498 4.38425 3.60073 4.5877 3.60073 4.79983C3.60073 5.01196 3.68498 5.21541 3.83496 5.36543L6.46936 7.99983L3.83496 10.6342C3.68924 10.7851 3.6086 10.9872 3.61042 11.1969C3.61225 11.4067 3.69638 11.6074 3.84471 11.7557C3.99303 11.904 4.19368 11.9881 4.40344 11.99C4.6132 11.9918 4.81528 11.9112 4.96616 11.7654L8.16616 8.56543C8.31614 8.41541 8.40039 8.21196 8.40039 7.99983C8.40039 7.7877 8.31614 7.58425 8.16616 7.43423L4.96616 4.23423C4.81614 4.08425 4.61269 4 4.40056 4C4.18843 4 3.98498 4.08425 3.83496 4.23423Z" fill="url(#paint1_linear_1793_19828)"/>
<defs>
<linearGradient id="paint0_linear_1793_19828" x1="7.86356" y1="7.995" x2="14.2536" y2="8.21877" gradientUnits="userSpaceOnUse">
<stop stop-color="#5CB170"/>
<stop offset="1" stop-color="#D6DE6D"/>
</linearGradient>
<linearGradient id="paint1_linear_1793_19828" x1="3.06394" y1="7.995" x2="9.45403" y2="8.21877" gradientUnits="userSpaceOnUse">
<stop stop-color="#5CB170"/>
<stop offset="1" stop-color="#D6DE6D"/>
</linearGradient>
</defs>
</svg>
