<svg width="16" height="16" viewBox="0 0 16 16" fill="none" xmlns="http://www.w3.org/2000/svg">
<path fill-rule="evenodd" clip-rule="evenodd" d="M7.36542 4.23423C7.51539 4.38425 7.59965 4.5877 7.59965 4.79983C7.59965 5.01196 7.51539 5.21541 7.36542 5.36543L4.73102 7.99983L7.36542 10.6342C7.51114 10.7851 7.59178 10.9872 7.58996 11.1969C7.58813 11.4067 7.504 11.6074 7.35567 11.7557C7.20735 11.904 7.0067 11.9881 6.79694 11.99C6.58718 11.9918 6.3851 11.9112 6.23422 11.7654L3.03422 8.56543C2.88424 8.41541 2.79999 8.21196 2.79999 7.99983C2.79999 7.7877 2.88424 7.58425 3.03422 7.43423L6.23422 4.23423C6.38424 4.08425 6.58769 4 6.79982 4C7.01195 4 7.21539 4.08425 7.36542 4.23423Z" fill="url(#paint0_linear_1793_19810)"/>
<path fill-rule="evenodd" clip-rule="evenodd" d="M12.165 4.23423C12.315 4.38425 12.3993 4.5877 12.3993 4.79983C12.3993 5.01196 12.315 5.21541 12.165 5.36543L9.53064 7.99983L12.165 10.6342C12.3108 10.7851 12.3914 10.9872 12.3896 11.1969C12.3878 11.4067 12.3036 11.6074 12.1553 11.7557C12.007 11.904 11.8063 11.9881 11.5966 11.99C11.3868 11.9918 11.1847 11.9112 11.0338 11.7654L7.83384 8.56543C7.68386 8.41541 7.59961 8.21196 7.59961 7.99983C7.59961 7.7877 7.68386 7.58425 7.83384 7.43423L11.0338 4.23423C11.1839 4.08425 11.3873 4 11.5994 4C11.8116 4 12.015 4.08425 12.165 4.23423Z" fill="url(#paint1_linear_1793_19810)"/>
<defs>
<linearGradient id="paint0_linear_1793_19810" x1="8.13644" y1="7.995" x2="1.74635" y2="8.21877" gradientUnits="userSpaceOnUse">
<stop stop-color="#5CB170"/>
<stop offset="1" stop-color="#D6DE6D"/>
</linearGradient>
<linearGradient id="paint1_linear_1793_19810" x1="12.9361" y1="7.995" x2="6.54597" y2="8.21877" gradientUnits="userSpaceOnUse">
<stop stop-color="#5CB170"/>
<stop offset="1" stop-color="#D6DE6D"/>
</linearGradient>
</defs>
</svg>
