<svg width="16" height="16" viewBox="0 0 16 16" fill="none" xmlns="http://www.w3.org/2000/svg">
<path d="M6.95999 10.3993C6.95999 12.1593 5.73333 13.4927 3.86666 13.4927C1.99999 13.4927 0.399994 11.9993 0.399994 9.33268C0.399994 6.41947 2.34562 3.87883 5.03334 2.95075C5.60948 2.75181 6.16 3.21977 6.16 3.8293C6.16 4.30031 5.82263 4.69564 5.38121 4.85996C3.92043 5.40374 2.90666 6.57023 2.90666 7.89268C3.22666 7.67935 3.65333 7.51935 4.34666 7.51935C5.73333 7.51935 6.95999 8.53268 6.95999 10.3993ZM15.6 10.3993C15.6 12.1593 14.32 13.4927 12.4533 13.4927C10.64 13.4927 8.98666 11.9993 8.98666 9.33268C8.98666 6.41355 10.9402 3.86851 13.6731 2.94512C14.2505 2.75004 14.8 3.21862 14.8 3.82805C14.8 4.29979 14.4621 4.69581 14.02 4.86025C12.5599 5.40326 11.5467 6.56285 11.5467 7.83935C11.8667 7.62602 12.3467 7.51935 12.9867 7.51935C14.3733 7.51935 15.6 8.53268 15.6 10.3993Z" fill="currentColor"/>
</svg>
