<svg width="20" height="20" viewBox="0 0 20 20" fill="none" xmlns="http://www.w3.org/2000/svg">
<path fill-rule="evenodd" clip-rule="evenodd" d="M4.29279 4.29259C4.48031 4.10512 4.73462 3.99981 4.99979 3.99981C5.26495 3.99981 5.51926 4.10512 5.70679 4.29259L9.99979 8.58559L14.2928 4.29259C14.385 4.19708 14.4954 4.1209 14.6174 4.06849C14.7394 4.01608 14.8706 3.9885 15.0034 3.98734C15.1362 3.98619 15.2678 4.01149 15.3907 4.06177C15.5136 4.11205 15.6253 4.18631 15.7192 4.2802C15.8131 4.37409 15.8873 4.48574 15.9376 4.60864C15.9879 4.73154 16.0132 4.86321 16.012 4.99599C16.0109 5.12877 15.9833 5.25999 15.9309 5.382C15.8785 5.504 15.8023 5.61435 15.7068 5.70659L11.4138 9.99959L15.7068 14.2926C15.8889 14.4812 15.9897 14.7338 15.9875 14.996C15.9852 15.2582 15.88 15.509 15.6946 15.6944C15.5092 15.8798 15.2584 15.985 14.9962 15.9873C14.734 15.9895 14.4814 15.8888 14.2928 15.7066L9.99979 11.4136L5.70679 15.7066C5.51818 15.8888 5.26558 15.9895 5.00339 15.9873C4.74119 15.985 4.49038 15.8798 4.30497 15.6944C4.11956 15.509 4.01439 15.2582 4.01211 14.996C4.00983 14.7338 4.11063 14.4812 4.29279 14.2926L8.58579 9.99959L4.29279 5.70659C4.10532 5.51907 4 5.26476 4 4.99959C4 4.73443 4.10532 4.48012 4.29279 4.29259Z" fill="currentColor"/>
</svg>
