<svg width="32" height="32" viewBox="0 0 32 32" fill="none" xmlns="http://www.w3.org/2000/svg">
<g filter="url(#filter0_b_1_13726)">
<rect width="32" height="32" rx="16" fill="#C3C3C3" fill-opacity="0.3" style="mix-blend-mode:luminosity"/>
<rect x="0.5" y="0.5" width="31" height="31" rx="15.5" stroke="url(#paint0_linear_1_13726)"/>
<path fill-rule="evenodd" clip-rule="evenodd" d="M21.6335 11.4159C21.7835 11.5659 21.8677 11.7693 21.8677 11.9815C21.8677 12.1936 21.7835 12.397 21.6335 12.5471L15.2335 18.9471C15.0835 19.097 14.88 19.1813 14.6679 19.1813C14.4558 19.1813 14.2523 19.097 14.1023 18.9471L10.9023 15.7471C10.7566 15.5962 10.6759 15.3941 10.6778 15.1843C10.6796 14.9746 10.7637 14.7739 10.912 14.6256C11.0604 14.4773 11.261 14.3932 11.4708 14.3913C11.6805 14.3895 11.8826 14.4701 12.0335 14.6159L14.6679 17.2503L20.5023 11.4159C20.6523 11.2659 20.8558 11.1816 21.0679 11.1816C21.28 11.1816 21.4835 11.2659 21.6335 11.4159Z" fill="white"/>
</g>
<defs>
<filter id="filter0_b_1_13726" x="-115.377" y="-115.377" width="262.754" height="262.754" filterUnits="userSpaceOnUse" color-interpolation-filters="sRGB">
<feFlood flood-opacity="0" result="BackgroundImageFix"/>
<feGaussianBlur in="BackgroundImageFix" stdDeviation="57.6885"/>
<feComposite in2="SourceAlpha" operator="in" result="effect1_backgroundBlur_1_13726"/>
<feBlend mode="normal" in="SourceGraphic" in2="effect1_backgroundBlur_1_13726" result="shape"/>
</filter>
<linearGradient id="paint0_linear_1_13726" x1="2.24176" y1="-7.09502e-06" x2="17.4878" y2="35.0987" gradientUnits="userSpaceOnUse">
<stop stop-color="white" stop-opacity="0.25"/>
<stop offset="0.605751" stop-color="white" stop-opacity="0.02"/>
<stop offset="0.701033" stop-color="white" stop-opacity="0.02"/>
<stop offset="1" stop-color="white" stop-opacity="0.1"/>
</linearGradient>
</defs>
</svg>
