<svg width="32" height="32" viewBox="0 0 32 32" fill="none" xmlns="http://www.w3.org/2000/svg">
<g filter="url(#filter0_b_1_13731)">
<rect width="32" height="32" rx="16" fill="#C3C3C3" fill-opacity="0.3" style="mix-blend-mode:luminosity"/>
<rect x="0.5" y="0.5" width="31" height="31" rx="15.5" stroke="url(#paint0_linear_1_13731)"/>
<path fill-rule="evenodd" clip-rule="evenodd" d="M15.2004 9.59961C15.0519 9.59969 14.9063 9.64112 14.78 9.71925C14.6537 9.79739 14.5516 9.90914 14.4852 10.042L13.906 11.1996H11.2004C10.9882 11.1996 10.7847 11.2839 10.6347 11.4339C10.4847 11.584 10.4004 11.7874 10.4004 11.9996C10.4004 12.2118 10.4847 12.4153 10.6347 12.5653C10.7847 12.7153 10.9882 12.7996 11.2004 12.7996V20.7996C11.2004 21.224 11.369 21.6309 11.669 21.931C11.9691 22.231 12.376 22.3996 12.8004 22.3996H19.2004C19.6247 22.3996 20.0317 22.231 20.3318 21.931C20.6318 21.6309 20.8004 21.224 20.8004 20.7996V12.7996C21.0126 12.7996 21.216 12.7153 21.3661 12.5653C21.5161 12.4153 21.6004 12.2118 21.6004 11.9996C21.6004 11.7874 21.5161 11.584 21.3661 11.4339C21.216 11.2839 21.0126 11.1996 20.8004 11.1996H18.0948L17.5156 10.042C17.4492 9.90914 17.3471 9.79739 17.2208 9.71925C17.0945 9.64112 16.9489 9.59969 16.8004 9.59961H15.2004ZM13.6004 14.3996C13.6004 14.1874 13.6847 13.984 13.8347 13.8339C13.9847 13.6839 14.1882 13.5996 14.4004 13.5996C14.6126 13.5996 14.816 13.6839 14.9661 13.8339C15.1161 13.984 15.2004 14.1874 15.2004 14.3996V19.1996C15.2004 19.4118 15.1161 19.6153 14.9661 19.7653C14.816 19.9153 14.6126 19.9996 14.4004 19.9996C14.1882 19.9996 13.9847 19.9153 13.8347 19.7653C13.6847 19.6153 13.6004 19.4118 13.6004 19.1996V14.3996ZM17.6004 13.5996C17.3882 13.5996 17.1847 13.6839 17.0347 13.8339C16.8847 13.984 16.8004 14.1874 16.8004 14.3996V19.1996C16.8004 19.4118 16.8847 19.6153 17.0347 19.7653C17.1847 19.9153 17.3882 19.9996 17.6004 19.9996C17.8126 19.9996 18.016 19.9153 18.1661 19.7653C18.3161 19.6153 18.4004 19.4118 18.4004 19.1996V14.3996C18.4004 14.1874 18.3161 13.984 18.1661 13.8339C18.016 13.6839 17.8126 13.5996 17.6004 13.5996Z" fill="white"/>
</g>
<defs>
<filter id="filter0_b_1_13731" x="-115.377" y="-115.377" width="262.754" height="262.754" filterUnits="userSpaceOnUse" color-interpolation-filters="sRGB">
<feFlood flood-opacity="0" result="BackgroundImageFix"/>
<feGaussianBlur in="BackgroundImageFix" stdDeviation="57.6885"/>
<feComposite in2="SourceAlpha" operator="in" result="effect1_backgroundBlur_1_13731"/>
<feBlend mode="normal" in="SourceGraphic" in2="effect1_backgroundBlur_1_13731" result="shape"/>
</filter>
<linearGradient id="paint0_linear_1_13731" x1="2.24176" y1="-7.09502e-06" x2="17.4878" y2="35.0987" gradientUnits="userSpaceOnUse">
<stop stop-color="white" stop-opacity="0.25"/>
<stop offset="0.605751" stop-color="white" stop-opacity="0.02"/>
<stop offset="0.701033" stop-color="white" stop-opacity="0.02"/>
<stop offset="1" stop-color="white" stop-opacity="0.1"/>
</linearGradient>
</defs>
</svg>
