<svg width="40" height="40" viewBox="0 0 40 40" fill="none" xmlns="http://www.w3.org/2000/svg">
<path d="M0.5 20C0.5 9.23045 9.23045 0.5 20 0.5C30.7696 0.5 39.5 9.23045 39.5 20C39.5 30.7696 30.7696 39.5 20 39.5C9.23045 39.5 0.5 30.7696 0.5 20Z" fill="#F5F9FF"/>
<path d="M0.5 20C0.5 9.23045 9.23045 0.5 20 0.5C30.7696 0.5 39.5 9.23045 39.5 20C39.5 30.7696 30.7696 39.5 20 39.5C9.23045 39.5 0.5 30.7696 0.5 20Z" stroke="#DBECF0"/>
<path fill-rule="evenodd" clip-rule="evenodd" d="M19.9984 29.5984C22.5445 29.5984 24.9863 28.587 26.7867 26.7867C28.587 24.9863 29.5984 22.5445 29.5984 19.9984C29.5984 17.4524 28.587 15.0106 26.7867 13.2102C24.9863 11.4099 22.5445 10.3984 19.9984 10.3984C17.4524 10.3984 15.0106 11.4099 13.2102 13.2102C11.4099 15.0106 10.3984 17.4524 10.3984 19.9984C10.3984 22.5445 11.4099 24.9863 13.2102 26.7867C15.0106 28.587 17.4524 29.5984 19.9984 29.5984ZM19.4644 16.6C19.2837 16.4795 19.0737 16.4102 18.8567 16.3997C18.6397 16.3891 18.4239 16.4377 18.2323 16.5402C18.0408 16.6427 17.8806 16.7953 17.769 16.9816C17.6574 17.168 17.5984 17.3812 17.5984 17.5984V22.3984C17.5984 22.6157 17.6574 22.8289 17.769 23.0152C17.8806 23.2016 18.0408 23.3542 18.2323 23.4567C18.4239 23.5592 18.6397 23.6077 18.8567 23.5972C19.0737 23.5867 19.2837 23.5174 19.4644 23.3968L23.0644 20.9968C23.2288 20.8872 23.3635 20.7388 23.4567 20.5646C23.5499 20.3905 23.5987 20.196 23.5987 19.9984C23.5987 19.8009 23.5499 19.6064 23.4567 19.4323C23.3635 19.2581 23.2288 19.1096 23.0644 19L19.4644 16.6Z" fill="#0C343D"/>
</svg>
