<svg width="20" height="20" viewBox="0 0 20 20" fill="none" xmlns="http://www.w3.org/2000/svg">
<path d="M18.8 10.207C18.8 9.55703 18.7417 8.93203 18.6333 8.33203H10V11.8779H14.9333C14.7208 13.0237 14.075 13.9945 13.1042 14.6445V16.9445H16.0667C17.8 15.3487 18.8 12.9987 18.8 10.207Z" fill="#4285F4"/>
<path d="M9.99977 19.1672C12.4748 19.1672 14.5498 18.3464 16.0664 16.9464L13.1039 14.6464C12.2831 15.1964 11.2331 15.5214 9.99977 15.5214C7.61227 15.5214 5.59144 13.9089 4.87061 11.7422H1.80811V14.1172C3.31644 17.113 6.41644 19.1672 9.99977 19.1672Z" fill="#34A853"/>
<path d="M4.871 11.7411C4.68766 11.1911 4.5835 10.6036 4.5835 9.99948C4.5835 9.39531 4.68766 8.80781 4.871 8.25781V5.88281H1.8085C1.16683 7.16019 0.832931 8.56999 0.833497 9.99948C0.833497 11.4786 1.18766 12.8786 1.8085 14.1161L4.871 11.7411Z" fill="#FBBC05"/>
<path d="M9.99977 4.47786C11.3456 4.47786 12.5539 4.94036 13.5039 5.8487L16.1331 3.21953C14.5456 1.74036 12.4706 0.832031 9.99977 0.832031C6.41644 0.832031 3.31644 2.8862 1.80811 5.88203L4.87061 8.25703C5.59144 6.09036 7.61227 4.47786 9.99977 4.47786Z" fill="#EA4335"/>
</svg>
