<svg width="60" height="60" viewBox="0 0 60 60" fill="none" xmlns="http://www.w3.org/2000/svg">
<path d="M0 30C0 13.4315 13.4315 0 30 0C46.5685 0 60 13.4315 60 30C60 46.5685 46.5685 60 30 60C13.4315 60 0 46.5685 0 30Z" fill="#ABCF6F"/>
<path fill-rule="evenodd" clip-rule="evenodd" d="M39.3913 23.4099C39.6538 23.6724 39.8012 24.0285 39.8012 24.3997C39.8012 24.7709 39.6538 25.127 39.3913 25.3895L28.1913 36.5895C27.9288 36.852 27.5728 36.9994 27.2015 36.9994C26.8303 36.9994 26.4743 36.852 26.2117 36.5895L20.6117 30.9895C20.3567 30.7255 20.2156 30.3718 20.2188 30.0047C20.222 29.6377 20.3692 29.2865 20.6288 29.027C20.8884 28.7674 21.2395 28.6201 21.6066 28.617C21.9737 28.6138 22.3273 28.7549 22.5913 29.0099L27.2015 33.6201L37.4117 23.4099C37.6743 23.1474 38.0303 23 38.4015 23C38.7728 23 39.1288 23.1474 39.3913 23.4099Z" fill="white"/>
</svg>
