<svg width="8" height="5" viewBox="0 0 8 5" fill="none" xmlns="http://www.w3.org/2000/svg">
<path fill-rule="evenodd" clip-rule="evenodd" d="M0.234229 0.334074C0.384251 0.184098 0.587698 0.0998452 0.799829 0.0998452C1.01196 0.0998452 1.21541 0.184098 1.36543 0.334074L3.99983 2.96847L6.63423 0.334074C6.70803 0.257666 6.7963 0.19672 6.89391 0.154793C6.99151 0.112866 7.09649 0.090797 7.20271 0.089874C7.30893 0.0889509 7.41428 0.109192 7.51259 0.149417C7.61091 0.189642 7.70023 0.249044 7.77534 0.324158C7.85046 0.399272 7.90986 0.488594 7.95009 0.586911C7.99031 0.685228 8.01055 0.790572 8.00963 0.896795C8.00871 1.00302 7.98664 1.10799 7.94471 1.2056C7.90278 1.3032 7.84184 1.39148 7.76543 1.46527L4.56543 4.66527C4.41541 4.81525 4.21196 4.8995 3.99983 4.8995C3.7877 4.8995 3.58425 4.81525 3.43423 4.66527L0.234229 1.46527C0.0842524 1.31525 0 1.11181 0 0.899674C0 0.687543 0.0842524 0.484097 0.234229 0.334074Z" fill="white"/>
</svg>
