<svg width="32" height="32" viewBox="0 0 32 32" fill="none" xmlns="http://www.w3.org/2000/svg">
<g filter="url(#filter0_b_1_7003)">
<rect width="32" height="32" rx="16" fill="#C3C3C3" fill-opacity="0.3" style="mix-blend-mode:luminosity"/>
<rect x="0.5" y="0.5" width="31" height="31" rx="15.5" stroke="url(#paint0_linear_1_7003)"/>
<path d="M16.3611 8.75977C15.088 8.75977 13.8671 9.26548 12.9669 10.1657C12.0668 11.0658 11.5611 12.2867 11.5611 13.5598V16.4286L10.9955 16.9942C10.8836 17.106 10.8074 17.2486 10.7766 17.4037C10.7457 17.5589 10.7616 17.7197 10.8221 17.8659C10.8827 18.012 10.9852 18.137 11.1167 18.2249C11.2482 18.3128 11.4029 18.3597 11.5611 18.3598H21.1611C21.3193 18.3597 21.4739 18.3128 21.6054 18.2249C21.737 18.137 21.8395 18.012 21.9 17.8659C21.9605 17.7197 21.9764 17.5589 21.9455 17.4037C21.9147 17.2486 21.8385 17.106 21.7267 16.9942L21.1611 16.4286V13.5598C21.1611 12.2867 20.6553 11.0658 19.7552 10.1657C18.855 9.26548 17.6341 8.75977 16.3611 8.75977ZM16.3611 21.5598C15.7245 21.5598 15.1141 21.3069 14.664 20.8568C14.2139 20.4067 13.9611 19.7963 13.9611 19.1598H18.7611C18.7611 19.7963 18.5082 20.4067 18.0581 20.8568C17.608 21.3069 16.9976 21.5598 16.3611 21.5598Z" fill="white"/>
</g>
<defs>
<filter id="filter0_b_1_7003" x="-115.377" y="-115.377" width="262.754" height="262.754" filterUnits="userSpaceOnUse" color-interpolation-filters="sRGB">
<feFlood flood-opacity="0" result="BackgroundImageFix"/>
<feGaussianBlur in="BackgroundImageFix" stdDeviation="57.6885"/>
<feComposite in2="SourceAlpha" operator="in" result="effect1_backgroundBlur_1_7003"/>
<feBlend mode="normal" in="SourceGraphic" in2="effect1_backgroundBlur_1_7003" result="shape"/>
</filter>
<linearGradient id="paint0_linear_1_7003" x1="2.24176" y1="-7.09502e-06" x2="17.4878" y2="35.0987" gradientUnits="userSpaceOnUse">
<stop stop-color="white" stop-opacity="0.25"/>
<stop offset="0.605751" stop-color="white" stop-opacity="0.02"/>
<stop offset="0.701033" stop-color="white" stop-opacity="0.02"/>
<stop offset="1" stop-color="white" stop-opacity="0.1"/>
</linearGradient>
</defs>
</svg>
