<svg width="60" height="60" viewBox="0 0 60 60" fill="none" xmlns="http://www.w3.org/2000/svg">
<g filter="url(#filter0_b_8_244)">
<path d="M0 30C0 13.4315 13.4315 0 30 0V0C46.5685 0 60 13.4315 60 30V30C60 46.5685 46.5685 60 30 60V60C13.4315 60 0 46.5685 0 30V30Z" fill="#C3C3C3" fill-opacity="0.3" style="mix-blend-mode:luminosity"/>
<path d="M30 59.1924C13.8775 59.1924 0.80764 46.1225 0.80764 30C0.80764 13.8775 13.8775 0.80764 30 0.80764C46.1225 0.80764 59.1924 13.8775 59.1924 30C59.1924 46.1225 46.1225 59.1924 30 59.1924Z" stroke="url(#paint0_linear_8_244)" stroke-width="1.61528"/>
<path fill-rule="evenodd" clip-rule="evenodd" d="M30 42.8C33.3948 42.8 36.6505 41.4514 39.051 39.051C41.4514 36.6505 42.8 33.3948 42.8 30C42.8 26.6052 41.4514 23.3495 39.051 20.949C36.6505 18.5486 33.3948 17.2 30 17.2C26.6052 17.2 23.3495 18.5486 20.949 20.949C18.5486 23.3495 17.2 26.6052 17.2 30C17.2 33.3948 18.5486 36.6505 20.949 39.051C23.3495 41.4514 26.6052 42.8 30 42.8ZM29.288 25.4688C29.047 25.308 28.767 25.2157 28.4776 25.2016C28.1883 25.1876 27.9006 25.2523 27.6452 25.389C27.3898 25.5257 27.1762 25.7291 27.0274 25.9776C26.8785 26.2261 26.8 26.5103 26.8 26.8V33.2C26.8 33.4897 26.8785 33.7739 27.0274 34.0224C27.1762 34.2709 27.3898 34.4743 27.6452 34.611C27.9006 34.7477 28.1883 34.8124 28.4776 34.7984C28.767 34.7843 29.047 34.692 29.288 34.5312L34.088 31.3312C34.3071 31.1851 34.4868 30.9871 34.6111 30.7549C34.7353 30.5227 34.8004 30.2634 34.8004 30C34.8004 29.7366 34.7353 29.4773 34.6111 29.2451C34.4868 29.0129 34.3071 28.8149 34.088 28.6688L29.288 25.4688Z" fill="white"/>
</g>
<defs>
<filter id="filter0_b_8_244" x="-115.377" y="-115.377" width="290.754" height="290.754" filterUnits="userSpaceOnUse" color-interpolation-filters="sRGB">
<feFlood flood-opacity="0" result="BackgroundImageFix"/>
<feGaussianBlur in="BackgroundImageFix" stdDeviation="57.6885"/>
<feComposite in2="SourceAlpha" operator="in" result="effect1_backgroundBlur_8_244"/>
<feBlend mode="normal" in="SourceGraphic" in2="effect1_backgroundBlur_8_244" result="shape"/>
</filter>
<linearGradient id="paint0_linear_8_244" x1="4.2033" y1="-1.33032e-05" x2="32.7895" y2="65.81" gradientUnits="userSpaceOnUse">
<stop stop-color="white" stop-opacity="0.25"/>
<stop offset="0.605751" stop-color="white" stop-opacity="0.02"/>
<stop offset="0.701033" stop-color="white" stop-opacity="0.02"/>
<stop offset="1" stop-color="white" stop-opacity="0.1"/>
</linearGradient>
</defs>
</svg>
