<svg width="20" height="20" viewBox="0 0 20 20" fill="none" xmlns="http://www.w3.org/2000/svg">
<path fill-rule="evenodd" clip-rule="evenodd" d="M9.9999 19.6004C12.546 19.6004 14.9878 18.589 16.7881 16.7886C18.5885 14.9883 19.5999 12.5465 19.5999 10.0004C19.5999 7.45431 18.5885 5.01252 16.7881 3.21217C14.9878 1.41182 12.546 0.400391 9.9999 0.400391C7.45382 0.400391 5.01203 1.41182 3.21168 3.21217C1.41133 5.01252 0.399902 7.45431 0.399902 10.0004C0.399902 12.5465 1.41133 14.9883 3.21168 16.7886C5.01203 18.589 7.45382 19.6004 9.9999 19.6004ZM11.1999 5.20039C11.1999 4.88213 11.0735 4.57691 10.8484 4.35186C10.6234 4.12682 10.3182 4.00039 9.9999 4.00039C9.68164 4.00039 9.37642 4.12682 9.15137 4.35186C8.92633 4.57691 8.7999 4.88213 8.7999 5.20039V10.0004C8.79997 10.3186 8.92644 10.6238 9.1515 10.8488L12.5451 14.2436C12.6566 14.3551 12.789 14.4435 12.9346 14.5039C13.0803 14.5642 13.2364 14.5953 13.3941 14.5953C13.5518 14.5953 13.7079 14.5642 13.8536 14.5039C13.9993 14.4435 14.1316 14.3551 14.2431 14.2436C14.3546 14.1321 14.443 13.9997 14.5034 13.8541C14.5637 13.7084 14.5948 13.5523 14.5948 13.3946C14.5948 13.2369 14.5637 13.0808 14.5034 12.9351C14.443 12.7894 14.3546 12.6571 14.2431 12.5456L11.1999 9.50359V5.20039Z" fill="#000B19"/>
</svg>
