<svg width="100" height="22" viewBox="0 0 100 22" fill="none" xmlns="http://www.w3.org/2000/svg">
<g clip-path="url(#clip0_3301_12668)">
<path d="M49.1533 12.8364C49.1533 15.3597 48.2999 17.5181 46.594 19.3117C44.8882 21.1042 42.8341 22.001 40.4329 22.001C38.0317 22.001 35.9798 21.1053 34.277 19.3117C32.5743 17.5192 31.7239 15.3607 31.7239 12.8364C31.7239 10.3121 32.5753 8.14178 34.277 6.34925C35.9787 4.55672 38.0307 3.65991 40.4329 3.65991C43.0449 3.65991 45.2322 4.70546 46.9949 6.79548L44.6299 9.49784C43.546 8.02778 42.147 7.29274 40.4329 7.29274C38.9854 7.29274 37.7466 7.83452 36.7154 8.91807C35.6843 10.0016 35.1687 11.3077 35.1687 12.8375C35.1687 14.3673 35.6843 15.6604 36.7154 16.744C37.7466 17.8275 38.9854 18.3693 40.4329 18.3693C42.4384 18.3693 43.9831 17.3921 45.0659 15.4378H40.4329V12.2643H49.1295C49.145 12.451 49.1533 12.6421 49.1533 12.8375V12.8364Z" fill="#000B19"/>
<path d="M56.08 9.19067C57.7538 9.19067 59.1869 9.81714 60.3802 11.0701C61.5726 12.3241 62.1698 13.83 62.1698 15.5888C62.1698 17.3477 61.5736 18.8666 60.3802 20.1196C59.1879 21.3725 57.7548 21.9989 56.08 21.9989C54.4051 21.9989 52.9627 21.3725 51.7745 20.1196C50.5853 18.8666 49.9912 17.3553 49.9912 15.5888C49.9912 13.8224 50.5853 12.3241 51.7745 11.0701C52.9627 9.81714 54.3979 9.19067 56.08 9.19067ZM56.08 18.3802C56.8074 18.3802 57.4304 18.1088 57.948 17.5649C58.4657 17.0209 58.724 16.363 58.724 15.5888C58.724 14.8147 58.4657 14.1698 57.948 13.6259C57.4304 13.0819 56.8074 12.8105 56.08 12.8105C55.3526 12.8105 54.7295 13.083 54.2119 13.6259C53.6943 14.1698 53.436 14.8234 53.436 15.5888C53.436 16.3543 53.6943 17.0209 54.2119 17.5649C54.7295 18.1088 55.3526 18.3802 56.08 18.3802Z" fill="#000B19"/>
<path d="M69.7009 9.17773C71.3747 9.17773 72.8078 9.8042 74.0011 11.0582C75.1935 12.3111 75.7907 13.817 75.7907 15.577C75.7907 15.628 75.7865 15.6747 75.7783 15.717V15.7681H75.7907V21.9751H72.3459V15.679H72.3335C72.3418 15.6704 72.3459 15.6584 72.3459 15.641V15.577C72.3459 14.8126 72.0876 14.1579 71.57 13.614C71.0523 13.0701 70.4293 12.7986 69.7019 12.7986C68.9745 12.7986 68.3515 13.0701 67.8339 13.614C67.3162 14.1579 67.0579 14.8126 67.0579 15.577V21.9882H63.6132V15.2458H63.6256C63.7464 13.5206 64.3839 12.0788 65.536 10.9181C66.688 9.7586 68.0767 9.17882 69.7019 9.17882L69.7009 9.17773Z" fill="#000B19"/>
<path d="M89.3992 15.4108V15.6019C89.3992 17.3608 88.8051 18.8667 87.6158 20.1207C86.4266 21.3736 84.9915 22 83.3104 22C81.6294 22 80.2056 21.3736 79.0164 20.1207C77.8271 18.8677 77.233 17.3618 77.233 15.6019C77.233 13.8419 77.8271 12.3263 79.0164 11.0777C80.2046 9.82801 81.6366 9.20372 83.3104 9.20372C84.2641 9.20372 85.1454 9.41652 85.9544 9.84104V3.70996H89.3992V15.4108ZM83.3104 18.3802C84.0461 18.3802 84.6701 18.1088 85.1847 17.5649C85.6982 17.0209 85.9544 16.3662 85.9544 15.6019C85.9544 14.8375 85.6972 14.1828 85.1847 13.6389C84.6712 13.0949 84.0461 12.8235 83.3104 12.8235C82.5748 12.8235 81.96 13.0949 81.4424 13.6389C80.9247 14.1828 80.6664 14.8375 80.6664 15.6019C80.6664 16.3662 80.9247 17.0209 81.4424 17.5649C81.96 18.1088 82.582 18.3802 83.3104 18.3802Z" fill="#000B19"/>
<path d="M91.23 22V3.70996H94.6624V22H91.23Z" fill="#000B19"/>
<path d="M98.0473 7.80205C97.5131 7.80205 97.0564 7.60228 96.6762 7.20273C96.2959 6.80318 96.1058 6.3233 96.1058 5.76198C96.1058 5.20066 96.2959 4.70883 96.6762 4.30928C97.0564 3.90973 97.5131 3.70996 98.0473 3.70996C98.5814 3.70996 99.0495 3.90973 99.4297 4.30928C99.8099 4.70883 100 5.19306 100 5.76198C100 6.3309 99.8099 6.80318 99.4297 7.20273C99.0495 7.60228 98.5887 7.80205 98.0473 7.80205Z" fill="#000B19"/>
<path d="M99.7696 9.19067H96.3248V22H99.7696V9.19067Z" fill="#000B19"/>
<path d="M10.9531 14.8093L12.4368 17.5095L15.957 11.4251C17.3849 8.95618 20.9557 8.95618 22.3847 11.4251L23.3363 13.07L20.5414 7.98229L18.4719 4.21592C15.3825 -1.40596 10.3291 -1.40596 7.24078 4.21592L5.17125 7.98229L1.56738 14.5422C3.78157 10.9517 8.8836 11.0397 10.9552 14.8082L10.9531 14.8093Z" fill="url(#paint0_linear_3301_12668)"/>
<path d="M15.957 11.425L12.4368 17.5094L13.2965 19.0739L14.8866 21.9695H21.6531C25.2673 21.9695 26.7459 19.278 24.9388 15.9915L23.3352 13.0731L22.3836 11.4282C20.9567 8.95821 17.3849 8.95821 15.957 11.4261V11.425Z" fill="url(#paint1_linear_3301_12668)"/>
<path d="M13.2975 19.0739L12.4379 17.5094L10.9542 14.8092C8.8836 11.0407 3.78054 10.9527 1.56635 14.5454L0.771807 15.9905C-1.03529 19.2791 0.443244 21.9685 4.05744 21.9685H14.8876L13.2975 19.0729V19.0739Z" fill="url(#paint2_linear_3301_12668)"/>
</g>
<defs>
<linearGradient id="paint0_linear_3301_12668" x1="-8.842e-06" y1="8.75424" x2="25.7106" y2="8.75424" gradientUnits="userSpaceOnUse">
<stop offset="0.12" stop-color="#195488"/>
<stop offset="0.9" stop-color="#159F84"/>
</linearGradient>
<linearGradient id="paint1_linear_3301_12668" x1="12.4368" y1="15.7722" x2="25.7095" y2="15.7722" gradientUnits="userSpaceOnUse">
<stop stop-color="#159F84"/>
<stop offset="1" stop-color="#F0E96E"/>
</linearGradient>
<linearGradient id="paint2_linear_3301_12668" x1="-6.75701e-06" y1="16.9416" x2="14.8876" y2="16.9416" gradientUnits="userSpaceOnUse">
<stop stop-color="#159F84"/>
<stop offset="1" stop-color="#F0E96E"/>
</linearGradient>
<clipPath id="clip0_3301_12668">
<rect width="100" height="22" fill="white"/>
</clipPath>
</defs>
</svg>
