<svg width="112" height="22" viewBox="0 0 112 22" fill="none" xmlns="http://www.w3.org/2000/svg">
<g clip-path="url(#clip0_3329_12647)">
<path d="M49.8391 12.8363C49.8391 15.3592 48.942 17.5174 47.1479 19.3109C45.3537 21.1043 43.1942 22.0007 40.6692 21.9999C38.1442 21.9999 35.9865 21.1036 34.1959 19.3109C32.4054 17.5182 31.5091 15.36 31.5069 12.8363C31.5069 10.3144 32.4065 8.14315 34.1959 6.34971C35.9854 4.55628 38.1431 3.66064 40.6692 3.66064C43.4158 3.66064 45.7159 4.70573 47.5694 6.7959L45.0879 9.498C43.9478 8.02808 42.4767 7.29311 40.6746 7.29311C39.9459 7.28288 39.2228 7.42211 38.55 7.7022C37.8773 7.98229 37.2692 8.39729 36.7633 8.92154C36.238 9.42881 35.8224 10.0383 35.5421 10.7124C35.2618 11.3864 35.1227 12.1108 35.1336 12.8406C35.1367 14.3071 35.7208 15.7127 36.7581 16.7502C37.7954 17.7877 39.2015 18.3727 40.6692 18.3772C42.7784 18.3772 44.4024 17.4002 45.541 15.4461H40.6692V12.2685H49.8141C49.8304 12.4552 49.8391 12.6463 49.8391 12.8417V12.8363Z" fill="white"/>
<path d="M59.1872 9.19063C60.9473 9.19063 62.4546 9.81703 63.7091 11.0698C64.9637 12.3226 65.5909 13.8287 65.5909 15.5882C65.6028 16.4316 65.442 17.2685 65.1184 18.0476C64.7948 18.8266 64.3153 19.5313 63.7091 20.1184C62.4553 21.3712 60.948 21.9976 59.1872 21.9976C57.4884 21.9956 55.8599 21.3199 54.6594 20.1189C53.4589 18.918 52.7846 17.2899 52.7846 15.5925C52.7846 13.8262 53.4093 12.3281 54.6598 11.0742C55.2451 10.4671 55.949 9.98667 56.7278 9.66266C57.5066 9.33866 58.3437 9.17799 59.1872 9.19063ZM59.1872 18.3793C59.5532 18.3786 59.9155 18.3058 60.2533 18.1651C60.5912 18.0244 60.898 17.8186 61.1562 17.5594C61.4144 17.3002 61.619 16.9927 61.7582 16.6545C61.8974 16.3162 61.9685 15.9539 61.9675 15.5882C61.9675 14.8514 61.6746 14.1448 61.1532 13.6238C60.6318 13.1028 59.9246 12.8101 59.1872 12.8101C58.4498 12.8101 57.7426 13.1028 57.2212 13.6238C56.6998 14.1448 56.4069 14.8514 56.4069 15.5882C56.4013 15.9556 56.4708 16.3204 56.6111 16.6601C56.7514 16.9998 56.9596 17.3074 57.2228 17.564C57.4772 17.8267 57.7827 18.0346 58.1205 18.1749C58.4584 18.3151 58.8214 18.3846 59.1872 18.3793Z" fill="white"/>
<path d="M74.9227 9.17773C76.6828 9.17773 78.1901 9.8045 79.4447 11.058C80.6992 12.3115 81.3264 13.8177 81.3264 15.5764C81.3268 15.6234 81.3225 15.6703 81.3134 15.7164V15.7674H81.3264V21.9739H77.7041V15.6773H77.6911C77.6958 15.6722 77.6993 15.6662 77.7016 15.6597C77.7038 15.6531 77.7047 15.6462 77.7041 15.6393V15.5753C77.7041 14.8385 77.4112 14.1319 76.8898 13.6109C76.3684 13.0899 75.6612 12.7972 74.9238 12.7972C74.1864 12.7972 73.4792 13.0899 72.9578 13.6109C72.4364 14.1319 72.1435 14.8385 72.1435 15.5753V21.9858H68.5212V15.2442H68.5342C68.6617 13.5195 69.3313 12.0771 70.5431 10.9169C71.7549 9.75673 73.2151 9.17773 74.9238 9.17991L74.9227 9.17773Z" fill="white"/>
<path d="M97.2662 15.4101V15.6012C97.2662 17.3599 96.6411 18.866 95.391 20.1195C94.8052 20.7257 94.1011 21.2052 93.3224 21.5284C92.5436 21.8517 91.7068 22.0117 90.8636 21.9987C89.0959 21.9987 87.5987 21.3723 86.3482 20.1195C85.7437 19.534 85.2656 18.8311 84.9431 18.0541C84.6206 17.277 84.4606 16.4423 84.4729 15.6012C84.4597 14.7587 84.6193 13.9224 84.9418 13.1438C85.2643 12.3653 85.7429 11.6609 86.3482 11.0742C87.2844 10.1354 88.4904 9.51169 89.7981 9.29005C91.1058 9.06841 92.4502 9.25984 93.6439 9.83766V3.71045H97.2662V15.4101ZM90.8636 18.3793C91.4131 18.3789 91.9502 18.2159 92.4072 17.911C92.8641 17.606 93.2205 17.1726 93.4313 16.6656C93.6421 16.1585 93.6979 15.6004 93.5917 15.0617C93.4855 14.5229 93.222 14.0277 92.8345 13.6384C92.5765 13.3802 92.2702 13.1753 91.933 13.0354C91.5957 12.8955 91.2343 12.8234 90.8691 12.8231C90.504 12.8228 90.1424 12.8943 89.805 13.0337C89.4675 13.173 89.1609 13.3774 88.9025 13.6351C88.6441 13.8929 88.439 14.199 88.299 14.5359C88.159 14.8729 88.0868 15.2341 88.0865 15.5989C88.0862 15.9637 88.1578 16.325 88.2973 16.6622C88.4367 16.9994 88.6413 17.3058 88.8992 17.564C89.1535 17.8268 89.459 18.0348 89.7968 18.175C90.1347 18.3153 90.4978 18.3848 90.8636 18.3793Z" fill="white"/>
<path d="M101.15 21.9987V3.71045H104.76V21.9987H101.15Z" fill="white"/>
<path d="M109.951 7.80234C109.41 7.80062 108.892 7.58515 108.509 7.20297C108.127 6.8208 107.911 6.30294 107.909 5.76246C107.905 5.49235 107.957 5.22426 108.06 4.97453C108.163 4.72481 108.316 4.49867 108.509 4.30991C108.696 4.1169 108.92 3.96414 109.168 3.86107C109.416 3.758 109.682 3.70681 109.951 3.71065C110.221 3.70993 110.488 3.76252 110.738 3.86538C110.987 3.96824 111.214 4.11934 111.404 4.31002C111.595 4.50069 111.747 4.72716 111.849 4.97642C111.952 5.22568 112.005 5.49282 112.004 5.76246C112.009 6.03087 111.958 6.29732 111.855 6.54518C111.751 6.79303 111.598 7.01699 111.405 7.20308C111.216 7.39689 110.99 7.55006 110.74 7.65313C110.49 7.7562 110.221 7.80698 109.951 7.80234Z" fill="white"/>
<path d="M111.758 9.19092H108.135V21.999H111.758V9.19092Z" fill="white"/>
<path d="M11.5156 14.8088L13.0758 17.5088L16.7775 11.4293C18.279 8.96062 22.0339 8.96062 23.5365 11.4293L24.5371 13.074L21.5993 7.98248L19.4263 4.21648C16.1777 -1.40484 10.8637 -1.40484 7.61624 4.21648L5.44328 7.98248L1.64711 14.5418C3.97544 10.9516 9.34266 11.0396 11.5156 14.8077V14.8088Z" fill="url(#paint0_linear_3329_12647)"/>
<path d="M16.7785 11.4252L13.0769 17.5046L13.9808 19.069L15.6529 21.9644H22.7683C26.571 21.9644 28.1236 19.2731 26.2233 15.987L24.5371 13.0688L23.5365 11.4241C22.036 8.95433 18.2801 8.95433 16.7785 11.4241V11.4252Z" fill="url(#paint1_linear_3329_12647)"/>
<path d="M13.9819 19.073L13.078 17.5087L11.5156 14.8087C9.34266 11.0406 3.97435 10.9526 1.64602 14.5482L0.810514 15.9899C-1.08974 19.2782 0.465013 21.9673 4.26553 21.9673H15.654L13.9819 19.072V19.073Z" fill="url(#paint2_linear_3329_12647)"/>
</g>
<defs>
<linearGradient id="paint0_linear_3329_12647" x1="-0.00108335" y1="8.75435" x2="27.0349" y2="8.75435" gradientUnits="userSpaceOnUse">
<stop offset="0.12" stop-color="#195488"/>
<stop offset="0.9" stop-color="#159F84"/>
</linearGradient>
<linearGradient id="paint1_linear_3329_12647" x1="13.0769" y1="15.772" x2="27.0338" y2="15.772" gradientUnits="userSpaceOnUse">
<stop stop-color="#159F84"/>
<stop offset="1" stop-color="#F0E96E"/>
</linearGradient>
<linearGradient id="paint2_linear_3329_12647" x1="-1.79794e-06" y1="16.9409" x2="15.654" y2="16.9409" gradientUnits="userSpaceOnUse">
<stop stop-color="#159F84"/>
<stop offset="1" stop-color="#F0E96E"/>
</linearGradient>
<clipPath id="clip0_3329_12647">
<rect width="112" height="22" fill="white"/>
</clipPath>
</defs>
</svg>
