<svg width="40" height="40" viewBox="0 0 40 40" fill="none" xmlns="http://www.w3.org/2000/svg">
<path d="M28.3333 33.3333L22.2222 27.2222M24.8148 20.7407C24.8148 21.9323 24.5801 23.1123 24.1241 24.2132C23.668 25.3141 22.9996 26.3144 22.157 27.157C21.3144 27.9996 20.3141 28.668 19.2132 29.1241C18.1123 29.5801 16.9323 29.8148 15.7407 29.8148C14.5491 29.8148 13.3691 29.5801 12.2682 29.1241C11.1673 28.668 10.167 27.9996 9.32436 27.157C8.48176 26.3144 7.81336 25.3141 7.35735 24.2132C6.90133 23.1123 6.66663 21.9323 6.66663 20.7407C6.66663 18.3341 7.62264 16.0261 9.32436 14.3244C11.0261 12.6226 13.3341 11.6666 15.7407 11.6666C18.1473 11.6666 20.4553 12.6226 22.157 14.3244C23.8588 16.0261 24.8148 18.3341 24.8148 20.7407Z" stroke="url(#paint0_linear_619_12918)" stroke-width="3.33333" stroke-linecap="round" stroke-linejoin="round"/>
<path fill-rule="evenodd" clip-rule="evenodd" d="M36.6667 16.6666C36.372 16.6666 36.0894 16.5496 35.881 16.3412C35.6726 16.1328 35.5556 15.8502 35.5556 15.5555V14.4444H34.4444C34.1498 14.4444 33.8671 14.3273 33.6588 14.119C33.4504 13.9106 33.3333 13.628 33.3333 13.3333C33.3333 13.0386 33.4504 12.756 33.6588 12.5476C33.8671 12.3392 34.1498 12.2222 34.4444 12.2222H35.5556V11.1111C35.5556 10.8164 35.6726 10.5338 35.881 10.3254C36.0894 10.117 36.372 9.99996 36.6667 9.99996C36.9614 9.99996 37.244 10.117 37.4523 10.3254C37.6607 10.5338 37.7778 10.8164 37.7778 11.1111V12.2222H38.8889C39.1836 12.2222 39.4662 12.3392 39.6746 12.5476C39.8829 12.756 40 13.0386 40 13.3333C40 13.628 39.8829 13.9106 39.6746 14.119C39.4662 14.3273 39.1836 14.4444 38.8889 14.4444H37.7778V15.5555C37.7778 15.8502 37.6607 16.1328 37.4523 16.3412C37.244 16.5496 36.9614 16.6666 36.6667 16.6666Z" fill="url(#paint1_linear_619_12918)"/>
<path d="M28.9439 13.2206C29.0719 13.3191 29.2288 13.3725 29.3903 13.3724C29.5517 13.3723 29.7084 13.3189 29.8363 13.2204C29.9641 13.122 30.0558 12.984 30.0971 12.828L30.9605 9.56815L33.4147 8.15225C33.5259 8.08802 33.6183 7.99565 33.6825 7.88442C33.7467 7.77318 33.7805 7.647 33.7805 7.51856C33.7805 7.39012 33.7467 7.26395 33.6825 7.15271C33.6183 7.04148 33.5259 6.94911 33.4147 6.88488L30.9605 5.46971L30.0979 2.2091C30.0564 2.05315 29.9646 1.91526 29.8367 1.81689C29.7088 1.71852 29.552 1.66518 29.3907 1.66518C29.2293 1.66518 29.0725 1.71852 28.9446 1.81689C28.8167 1.91526 28.7249 2.05315 28.6835 2.2091L27.82 5.46898L25.3659 6.88488C25.2547 6.94911 25.1623 7.04148 25.0981 7.15271C25.0339 7.26395 25.0001 7.39012 25.0001 7.51856C25.0001 7.647 25.0339 7.77318 25.0981 7.88442C25.1623 7.99565 25.2547 8.08802 25.3659 8.15225L27.82 9.56742L28.6827 12.828C28.7241 12.9841 28.8159 13.1222 28.9439 13.2206Z" fill="url(#paint2_linear_619_12918)"/>
<defs>
<linearGradient id="paint0_linear_619_12918" x1="30.7565" y1="22.5" x2="1.97273" y2="24.1779" gradientUnits="userSpaceOnUse">
<stop stop-color="#5CB170"/>
<stop offset="1" stop-color="#D6DE6D"/>
</linearGradient>
<linearGradient id="paint1_linear_619_12918" x1="32.5877" y1="13.3333" x2="41.4443" y2="12.817" gradientUnits="userSpaceOnUse">
<stop stop-color="#5CB170"/>
<stop offset="1" stop-color="#D6DE6D"/>
</linearGradient>
<linearGradient id="paint2_linear_619_12918" x1="24.0181" y1="7.51881" x2="35.7" y2="7.00807" gradientUnits="userSpaceOnUse">
<stop stop-color="#5CB170"/>
<stop offset="1" stop-color="#D6DE6D"/>
</linearGradient>
</defs>
</svg>
