<svg width="40" height="40" viewBox="0 0 40 40" fill="none" xmlns="http://www.w3.org/2000/svg">
<path d="M20 24C21.0609 24 22.0783 23.5786 22.8284 22.8284C23.5786 22.0783 24 21.0609 24 20C24 18.9391 23.5786 17.9217 22.8284 17.1716C22.0783 16.4214 21.0609 16 20 16C18.9391 16 17.9217 16.4214 17.1716 17.1716C16.4214 17.9217 16 18.9391 16 20C16 21.0609 16.4214 22.0783 17.1716 22.8284C17.9217 23.5786 18.9391 24 20 24Z" fill="url(#paint0_linear_619_12912)"/>
<path fill-rule="evenodd" clip-rule="evenodd" d="M0.916016 20C3.46402 11.886 11.044 6 20 6C28.956 6 36.536 11.886 39.084 20C36.536 28.114 28.956 34 20 34C11.044 34 3.46402 28.114 0.916016 20ZM28 20C28 22.1217 27.1572 24.1566 25.6569 25.6569C24.1566 27.1571 22.1217 28 20 28C17.8783 28 15.8435 27.1571 14.3432 25.6569C12.8429 24.1566 12 22.1217 12 20C12 17.8783 12.8429 15.8434 14.3432 14.3431C15.8435 12.8429 17.8783 12 20 12C22.1217 12 24.1566 12.8429 25.6569 14.3431C27.1572 15.8434 28 17.8783 28 20Z" fill="url(#paint1_linear_619_12912)"/>
<defs>
<linearGradient id="paint0_linear_619_12912" x1="24.8947" y1="20" x2="14.2669" y2="20.6195" gradientUnits="userSpaceOnUse">
<stop stop-color="#5CB170"/>
<stop offset="1" stop-color="#D6DE6D"/>
</linearGradient>
<linearGradient id="paint1_linear_619_12912" x1="43.3527" y1="20" x2="-7.20581" y2="24.0176" gradientUnits="userSpaceOnUse">
<stop stop-color="#5CB170"/>
<stop offset="1" stop-color="#D6DE6D"/>
</linearGradient>
</defs>
</svg>
