<svg width="22" height="22" viewBox="0 0 22 22" fill="none" xmlns="http://www.w3.org/2000/svg">
<path fill-rule="evenodd" clip-rule="evenodd" d="M12.1609 2.30306C11.7803 2.23506 11.392 2.2002 11.0001 2.2002C9.24963 2.2002 7.57089 2.89555 6.33315 4.13329C5.09541 5.37103 4.40006 7.04977 4.40006 8.80019V12.7448L3.62236 13.5225C3.46857 13.6763 3.36384 13.8723 3.32142 14.0857C3.27899 14.299 3.30078 14.5201 3.38401 14.7211C3.46725 14.9221 3.6082 15.0939 3.78905 15.2147C3.96991 15.3356 4.18253 15.4001 4.40006 15.4002H17.6001C17.8176 15.4001 18.0302 15.3356 18.2111 15.2147C18.3919 15.0939 18.5329 14.9221 18.6161 14.7211C18.6993 14.5201 18.7211 14.299 18.6787 14.0857C18.6363 13.8723 18.5315 13.6763 18.3778 13.5225L17.6001 12.7448V8.80019C17.6001 8.49062 17.5783 8.18329 17.5357 7.88025C17.2031 7.95856 16.8564 8 16.5 8C14.0147 8 12 5.98528 12 3.5C12 3.08555 12.056 2.68418 12.1609 2.30306ZM8.66661 18.8336C9.28548 19.4525 10.1248 19.8002 11.0001 19.8002C11.8753 19.8002 12.7146 19.4525 13.3335 18.8336C13.9524 18.2148 14.3001 17.3754 14.3001 16.5002H7.70006C7.70006 17.3754 8.04774 18.2148 8.66661 18.8336Z" fill="url(#paint0_linear_2_988)"/>
<path d="M19 3.5C19 4.88071 17.8807 6 16.5 6C15.1193 6 14 4.88071 14 3.5C14 2.11929 15.1193 1 16.5 1C17.8807 1 19 2.11929 19 3.5Z" fill="url(#paint1_linear_2_988)"/>
<defs>
<linearGradient id="paint0_linear_2_988" x1="20.4221" y1="11.0002" x2="-0.0521378" y2="12.0445" gradientUnits="userSpaceOnUse">
<stop stop-color="#5CB170"/>
<stop offset="1" stop-color="#D6DE6D"/>
</linearGradient>
<linearGradient id="paint1_linear_2_988" x1="19.5592" y1="3.5" x2="12.9168" y2="3.88721" gradientUnits="userSpaceOnUse">
<stop stop-color="#5CB170"/>
<stop offset="1" stop-color="#D6DE6D"/>
</linearGradient>
</defs>
</svg>
