<svg xmlns="http://www.w3.org/2000/svg" width="22" height="22" fill="none" xmlns:v="https://vecta.io/nano"><path fill-rule="evenodd" d="M12.16 2.303A6.599 6.599 0 0 0 4.4 8.8v3.945l-.778.778A1.1 1.1 0 0 0 4.4 15.4h13.2a1.1 1.1 0 0 0 .778-1.877l-.778-.778V8.8c0-.31-.022-.617-.064-.92a4.5 4.5 0 0 1-5.375-5.577zm-3.493 16.53A3.3 3.3 0 0 0 14.3 16.5H7.7a3.3 3.3 0 0 0 .967 2.334z" fill="url(#A)"/><path d="M19 3.5a2.5 2.5 0 1 1-5 0 2.5 2.5 0 0 1 5 0z" fill="url(#B)"/><defs><linearGradient id="A" x1="20.422" y1="11" x2="-.052" y2="12.044" gradientUnits="userSpaceOnUse"><stop stop-color="#5cb170"/><stop offset="1" stop-color="#d6de6d"/></linearGradient><linearGradient id="B" x1="19.559" y1="3.5" x2="12.917" y2="3.887" gradientUnits="userSpaceOnUse"><stop stop-color="#5cb170"/><stop offset="1" stop-color="#d6de6d"/></linearGradient></defs></svg>