<svg xmlns="http://www.w3.org/2000/svg" width="22" height="23" fill="none" xmlns:v="https://vecta.io/nano"><g filter="url(#A)"><rect x="3" y="3.5" width="16" height="16" rx="8" fill="#c3c3c3" fill-opacity=".3" style="mix-blend-mode:luminosity"/><rect x="1.5" y="2" width="19" height="19" rx="9.5" stroke="#496f77" stroke-width="3"/><path d="M6.2 9a1.2 1.2 0 0 1 1.2-1.2h4.2A1.2 1.2 0 0 1 12.8 9v2.4a1.2 1.2 0 0 1-1.2 1.2h-1.2l-1.8 1.8v-1.8H7.4a1.2 1.2 0 0 1-1.2-1.2V9z" fill="#fff"/><path d="M14 10.2v1.2a2.4 2.4 0 0 1-2.4 2.4h-.702l-1.06 1.06c.168.09.36.14.563.14h1.2l1.8 1.8V15h1.2a1.2 1.2 0 0 0 1.2-1.2v-2.4a1.2 1.2 0 0 0-1.2-1.2H14z" fill="#fff"/></g><defs><filter id="A" x="-115.377" y="-114.877" width="252.754" height="252.754" filterUnits="userSpaceOnUse" color-interpolation-filters="sRGB"><feFlood flood-opacity="0"/><feGaussianBlur stdDeviation="57.688"/><feComposite in2="SourceAlpha" operator="in"/><feBlend in="SourceGraphic"/></filter></defs></svg>