<svg xmlns="http://www.w3.org/2000/svg" width="40" height="40" fill="none" xmlns:v="https://vecta.io/nano"><g clip-path="url(#B)"><g filter="url(#C)"><path d="M0 20C0 8.954 8.954 0 20 0s20 8.954 20 20-8.954 20-20 20S0 31.046 0 20z" fill="#c3c3c3" fill-opacity=".3" style="mix-blend-mode:luminosity"/><path d="M.5 20C.5 9.23 9.23.5 20 .5S39.5 9.23 39.5 20 30.77 39.5 20 39.5.5 30.77.5 20z" stroke="url(#A)"/></g><path fill-rule="evenodd" d="M20 28a8 8 0 1 0 0-16 8 8 0 0 0 0 16zm-.445-10.832A1 1 0 0 0 18 18v4a1 1 0 0 0 1.555.831l3-2a.998.998 0 0 0 0-1.663l-3-2z" fill="#fff"/></g><defs><linearGradient id="A" x1="2.802" y1="0" x2="21.86" y2="43.873" gradientUnits="userSpaceOnUse"><stop stop-color="#fff" stop-opacity=".25"/><stop offset=".606" stop-color="#fff" stop-opacity=".02"/><stop offset=".701" stop-color="#fff" stop-opacity=".02"/><stop offset="1" stop-color="#fff" stop-opacity=".1"/></linearGradient><clipPath id="B"><path d="M0 20C0 8.954 8.954 0 20 0s20 8.954 20 20-8.954 20-20 20S0 31.046 0 20z" fill="#fff"/></clipPath><filter id="C" x="-115.377" y="-115.377" width="270.754" height="270.754" filterUnits="userSpaceOnUse" color-interpolation-filters="sRGB"><feFlood flood-opacity="0"/><feGaussianBlur stdDeviation="57.688"/><feComposite in2="SourceAlpha" operator="in"/><feBlend in="SourceGraphic"/></filter></defs></svg>