<svg width="32" height="32" viewBox="0 0 32 32" fill="none" xmlns="http://www.w3.org/2000/svg">
<g filter="url(#filter0_b_2_724)">
<path d="M0 16C0 7.16344 7.16344 0 16 0C24.8366 0 32 7.16344 32 16C32 24.8366 24.8366 32 16 32C7.16344 32 0 24.8366 0 16Z" fill="#C3C3C3" fill-opacity="0.3" style="mix-blend-mode:luminosity"/>
<path d="M0.80764 16C0.80764 7.60949 7.60949 0.80764 16 0.80764C24.3905 0.80764 31.1924 7.60949 31.1924 16C31.1924 24.3905 24.3905 31.1924 16 31.1924C7.60949 31.1924 0.80764 24.3905 0.80764 16Z" stroke="url(#paint0_linear_2_724)" stroke-width="1.61528"/>
<path d="M10.4783 12.0789C10.1997 12.3575 9.97874 12.6882 9.82797 13.0522C9.67721 13.4161 9.59961 13.8063 9.59961 14.2002C9.59961 14.5942 9.67721 14.9843 9.82797 15.3483C9.97874 15.7123 10.1997 16.043 10.4783 16.3216L15.5996 21.4429L20.721 16.3216C21.2836 15.7589 21.5997 14.9959 21.5997 14.2002C21.5997 13.4046 21.2836 12.6415 20.721 12.0789C20.1584 11.5163 19.3953 11.2002 18.5996 11.2002C17.804 11.2002 17.0409 11.5163 16.4783 12.0789L15.5996 12.9576L14.721 12.0789C14.4424 11.8003 14.1117 11.5793 13.7477 11.4286C13.3837 11.2778 12.9936 11.2002 12.5996 11.2002C12.2057 11.2002 11.8156 11.2778 11.4516 11.4286C11.0876 11.5793 10.7569 11.8003 10.4783 12.0789Z" stroke="white" stroke-width="1.5" stroke-linecap="round" stroke-linejoin="round"/>
</g>
<defs>
<filter id="filter0_b_2_724" x="-115.377" y="-115.377" width="262.754" height="262.754" filterUnits="userSpaceOnUse" color-interpolation-filters="sRGB">
<feFlood flood-opacity="0" result="BackgroundImageFix"/>
<feGaussianBlur in="BackgroundImageFix" stdDeviation="57.6885"/>
<feComposite in2="SourceAlpha" operator="in" result="effect1_backgroundBlur_2_724"/>
<feBlend mode="normal" in="SourceGraphic" in2="effect1_backgroundBlur_2_724" result="shape"/>
</filter>
<linearGradient id="paint0_linear_2_724" x1="2.24176" y1="-7.09502e-06" x2="17.4878" y2="35.0987" gradientUnits="userSpaceOnUse">
<stop stop-color="white" stop-opacity="0.25"/>
<stop offset="0.605751" stop-color="white" stop-opacity="0.02"/>
<stop offset="0.701033" stop-color="white" stop-opacity="0.02"/>
<stop offset="1" stop-color="white" stop-opacity="0.1"/>
</linearGradient>
</defs>
</svg>
