<svg xmlns="http://www.w3.org/2000/svg" width="32" height="32" fill="none" xmlns:v="https://vecta.io/nano"><g filter="url(#B)"><path d="M0 16C0 7.163 7.163 0 16 0s16 7.163 16 16-7.163 16-16 16S0 24.837 0 16z" fill="#c3c3c3" fill-opacity=".3" style="mix-blend-mode:luminosity"/><path d="M.808 16C.808 7.61 7.609.808 16 .808 24.39.808 31.192 7.609 31.192 16c0 8.39-6.802 15.192-15.192 15.192S.808 24.39.808 16z" stroke="url(#A)" stroke-width="1.615"/><path d="M10.478 12.079a3 3 0 0 0 0 4.243l5.122 5.12 5.121-5.12a3 3 0 0 0-4.243-4.243l-.878.879-.879-.88a2.999 2.999 0 0 0-4.243 0z" stroke="#fff" stroke-width="1.5" stroke-linejoin="round"/></g><defs><linearGradient id="A" x1="2.242" y1="0" x2="17.488" y2="35.099" gradientUnits="userSpaceOnUse"><stop stop-color="#fff" stop-opacity=".25"/><stop offset=".606" stop-color="#fff" stop-opacity=".02"/><stop offset=".701" stop-color="#fff" stop-opacity=".02"/><stop offset="1" stop-color="#fff" stop-opacity=".1"/></linearGradient><filter id="B" x="-115.377" y="-115.377" width="262.754" height="262.754" filterUnits="userSpaceOnUse" color-interpolation-filters="sRGB"><feFlood flood-opacity="0"/><feGaussianBlur stdDeviation="57.688"/><feComposite in2="SourceAlpha" operator="in"/><feBlend in="SourceGraphic"/></filter></defs></svg>