<svg xmlns="http://www.w3.org/2000/svg" width="1440" height="351" fill="none" xmlns:v="https://vecta.io/nano"><style><![CDATA[.B{fill:#c3c3c3}.C{fill-opacity:.3}.D{color-interpolation-filters:sRGB}.E{flood-opacity:0}]]></style><g clip-path="url(#I)"><path fill="#0c343d" d="M0 0h1440v351H0z"/><g clip-path="url(#J)"><g filter="url(#E)"><use href="#L" style="mix-blend-mode:luminosity" class="B C"/><use href="#L" stroke="url(#B)"/></g><g filter="url(#F)"><path d="M514-47.369l-2.185 5.037-49.746 89.75-22.948 37.298c-10.311 16.772-21.714 30.692-33.829 41.81-11.07 10.216-22.758 18.007-34.779 23.424-52.644 23.804-111.511 2.138-152.895-65.235L193.102 44.9l-56.777-92.269H514z" style="mix-blend-mode:luminosity" class="B C"/><path d="M514-47.369c-.713 1.71-1.473 3.374-2.185 5.037l-49.746 89.75-22.948 37.298c-10.311 16.772-21.714 30.692-33.829 41.81-11.07 10.216-22.758 18.007-34.779 23.424-52.644 23.804-111.511 2.138-152.895-65.235L193.102 44.9l-56.777-92.269H514z" stroke="url(#A)"/></g></g><g clip-path="url(#K)"><g filter="url(#G)"><use href="#M" style="mix-blend-mode:luminosity" class="B C"/><use href="#M" stroke="url(#C)"/></g><g filter="url(#H)"><path d="M926 398.369l2.185-5.037 49.746-89.75 22.949-37.298c10.31-16.772 21.71-30.692 33.83-41.81 11.07-10.216 22.76-18.007 34.78-23.424 52.64-23.804 111.51-2.138 152.89 65.235l24.52 39.815 56.78 92.269H926z" style="mix-blend-mode:luminosity" class="B C"/><path d="M926 398.369c.713-1.711 1.473-3.374 2.185-5.037l49.746-89.75 22.949-37.298c10.31-16.772 21.71-30.692 33.83-41.81 11.07-10.216 22.76-18.007 34.78-23.424 52.64-23.804 111.51-2.138 152.89 65.235l24.52 39.815 56.78 92.269H926z" stroke="url(#D)"/></g></g></g><defs><linearGradient id="A" x1="487.542" y1="159.292" x2="426.924" y2="-95.741" href="#N"><stop stop-color="#fff" stop-opacity=".25"/><stop offset=".606" stop-color="#fff" stop-opacity=".02"/><stop offset=".701" stop-color="#fff" stop-opacity=".02"/><stop offset="1" stop-color="#fff" stop-opacity=".1"/></linearGradient><linearGradient id="B" x1="215.553" y1="209.625" x2="124.011" y2="-98.215" href="#N"><stop stop-color="#fff" stop-opacity=".25"/><stop offset=".606" stop-color="#fff" stop-opacity=".02"/><stop offset=".701" stop-color="#fff" stop-opacity=".02"/><stop offset="1" stop-color="#fff" stop-opacity=".1"/></linearGradient><linearGradient id="C" x1="1224.45" y1="141.375" x2="1315.99" y2="449.215" href="#N"><stop stop-color="#fff" stop-opacity=".25"/><stop offset=".606" stop-color="#fff" stop-opacity=".02"/><stop offset=".701" stop-color="#fff" stop-opacity=".02"/><stop offset="1" stop-color="#fff" stop-opacity=".1"/></linearGradient><linearGradient id="D" x1="952.458" y1="191.708" x2="1013.08" y2="446.741" href="#N"><stop stop-color="#fff" stop-opacity=".25"/><stop offset=".606" stop-color="#fff" stop-opacity=".02"/><stop offset=".701" stop-color="#fff" stop-opacity=".02"/><stop offset="1" stop-color="#fff" stop-opacity=".1"/></linearGradient><filter id="E" x="-249.769" y="-163.243" width="607.828" height="488.746" filterUnits="userSpaceOnUse" class="D"><feFlood class="E"/><feGaussianBlur stdDeviation="57.688"/><feComposite in2="SourceAlpha" operator="in"/><feBlend in="SourceGraphic"/></filter><filter id="F" x="20.053" y="-163.246" width="610.074" height="438.415" filterUnits="userSpaceOnUse" class="D"><feFlood class="E"/><feGaussianBlur stdDeviation="57.688"/><feComposite in2="SourceAlpha" operator="in"/><feBlend in="SourceGraphic"/></filter><filter id="G" x="1081.94" y="25.497" width="607.828" height="488.746" filterUnits="userSpaceOnUse" class="D"><feFlood class="E"/><feGaussianBlur stdDeviation="57.688"/><feComposite in2="SourceAlpha" operator="in"/><feBlend in="SourceGraphic"/></filter><filter id="H" x="809.873" y="75.831" width="610.074" height="438.415" filterUnits="userSpaceOnUse" class="D"><feFlood class="E"/><feGaussianBlur stdDeviation="57.688"/><feComposite in2="SourceAlpha" operator="in"/><feBlend in="SourceGraphic"/></filter><clipPath id="I"><path fill="#fff" d="M0 0h1440v351H0z"/></clipPath><clipPath id="J"><path fill="#fff" transform="rotate(180 257 207)" d="M0 0h654v654H0z"/></clipPath><clipPath id="K"><path fill="#fff" transform="translate(926 -63)" d="M0 0h654v654H0z"/></clipPath><path id="L" d="M-133.543-47.366h375.395l-48.748 92.268-49.793 94.312c-27.605 52.359-64.902 75.545-101.011 69.463-17.152-2.85-34.018-12.258-49.508-28.27l-6.652-12.02-119.683-215.753z"/><path id="M" d="M1573.54 398.366h-375.39l48.75-92.268 49.79-94.312c27.6-52.359 64.9-75.545 101.01-69.463 17.15 2.85 34.02 12.258 49.51 28.27l6.65 12.02 119.68 215.753z"/><linearGradient id="N" gradientUnits="userSpaceOnUse"/></defs></svg>