<svg width="60" height="60" viewBox="0 0 60 60" fill="none" xmlns="http://www.w3.org/2000/svg">
<g filter="url(#filter0_b_2_312)">
<path d="M15.5051 12.5035L15.5051 12.5035C19.3498 8.65883 24.5643 6.4989 30.0015 6.4989C35.4387 6.4989 40.6533 8.65883 44.498 12.5035C48.3427 16.3482 50.5026 21.5628 50.5026 27C50.5026 32.4372 48.3427 37.6517 44.498 41.4964L30.0015 55.9929L15.5051 41.4964L15.1706 41.8309L15.5051 41.4964C13.6012 39.5928 12.091 37.3328 11.0607 34.8455C10.0303 32.3582 9.5 29.6922 9.5 27C9.5 24.3077 10.0303 21.6418 11.0607 19.1545C12.091 16.6672 13.6012 14.4072 15.5051 12.5035ZM30.0015 33.5C31.7254 33.5 33.3787 32.8152 34.5977 31.5962C35.8167 30.3772 36.5015 28.7239 36.5015 27C36.5015 25.2761 35.8167 23.6228 34.5977 22.4038C33.3787 21.1848 31.7254 20.5 30.0015 20.5C28.2776 20.5 26.6243 21.1848 25.4053 22.4038C24.1863 23.6228 23.5015 25.2761 23.5015 27C23.5015 28.7239 24.1863 30.3772 25.4053 31.5962C26.6243 32.8152 28.2776 33.5 30.0015 33.5Z" fill="url(#paint0_linear_2_312)" stroke="url(#paint1_linear_2_312)"/>
</g>
<defs>
<filter id="filter0_b_2_312" x="-115.377" y="-115.377" width="290.754" height="290.754" filterUnits="userSpaceOnUse" color-interpolation-filters="sRGB">
<feFlood flood-opacity="0" result="BackgroundImageFix"/>
<feGaussianBlur in="BackgroundImageFix" stdDeviation="57.6885"/>
<feComposite in2="SourceAlpha" operator="in" result="effect1_backgroundBlur_2_312"/>
<feBlend mode="normal" in="SourceGraphic" in2="effect1_backgroundBlur_2_312" result="shape"/>
</filter>
<linearGradient id="paint0_linear_2_312" x1="55.7002" y1="31.3494" x2="-0.158844" y2="34.047" gradientUnits="userSpaceOnUse">
<stop stop-color="#5CB170"/>
<stop offset="1" stop-color="#D6DE6D"/>
</linearGradient>
<linearGradient id="paint1_linear_2_312" x1="11.9425" y1="5.99889" x2="39.1285" y2="57.8478" gradientUnits="userSpaceOnUse">
<stop stop-color="white" stop-opacity="0.25"/>
<stop offset="0.605751" stop-color="white" stop-opacity="0.02"/>
<stop offset="0.701033" stop-color="white" stop-opacity="0.02"/>
<stop offset="1" stop-color="white" stop-opacity="0.1"/>
</linearGradient>
</defs>
</svg>
