<svg xmlns="http://www.w3.org/2000/svg" width="32" height="32" fill="none" xmlns:v="https://vecta.io/nano"><g filter="url(#B)"><rect width="32" height="32" rx="16" fill="#c3c3c3" fill-opacity=".3" style="mix-blend-mode:luminosity"/><rect x=".5" y=".5" width="31" height="31" rx="15.5" stroke="url(#A)"/><path d="m16.333 18.668-2.666-2.667m0 0 2.666-2.666M13.667 16H23m-3.333 2.667v.667a2 2 0 0 1-2 2H13a2 2 0 0 1-2-2v-6.667a2 2 0 0 1 2-2h4.667a2 2 0 0 1 2 2v.667" stroke="#fff" stroke-width="1.5" stroke-linecap="round" stroke-linejoin="round"/></g><defs><linearGradient id="A" x1="2.242" y1="0" x2="17.488" y2="35.099" gradientUnits="userSpaceOnUse"><stop stop-color="#fff" stop-opacity=".25"/><stop offset=".606" stop-color="#fff" stop-opacity=".02"/><stop offset=".701" stop-color="#fff" stop-opacity=".02"/><stop offset="1" stop-color="#fff" stop-opacity=".1"/></linearGradient><filter id="B" x="-115.377" y="-115.377" width="262.754" height="262.754" filterUnits="userSpaceOnUse" color-interpolation-filters="sRGB"><feFlood flood-opacity="0"/><feGaussianBlur stdDeviation="57.688"/><feComposite in2="SourceAlpha" operator="in"/><feBlend in="SourceGraphic"/></filter></defs></svg>