<svg xmlns="http://www.w3.org/2000/svg" width="32" height="32" fill="none" xmlns:v="https://vecta.io/nano"><g filter="url(#B)"><rect width="32" height="32" rx="16" fill="#c3c3c3" fill-opacity=".3" style="mix-blend-mode:luminosity"/><rect x=".5" y=".5" width="31" height="31" rx="15.5" stroke="url(#A)"/><path fill-rule="evenodd" d="M17.192 10.538c-.304-1.248-2.08-1.248-2.384 0a1.226 1.226 0 0 1-1.829.758c-1.097-.669-2.353.587-1.685 1.685a1.227 1.227 0 0 1-.757 1.83c-1.249.303-1.249 2.08 0 2.382a1.225 1.225 0 0 1 .757 1.83c-.668 1.097.588 2.353 1.685 1.684a1.225 1.225 0 0 1 1.83.758c.303 1.249 2.08 1.249 2.382 0a1.227 1.227 0 0 1 1.83-.758c1.097.669 2.353-.587 1.685-1.685a1.228 1.228 0 0 1 .757-1.83c1.249-.302 1.249-2.08 0-2.382a1.226 1.226 0 0 1-.757-1.83c.668-1.097-.588-2.353-1.685-1.684a1.226 1.226 0 0 1-1.83-.758h.001zM16 18.402a2.4 2.4 0 1 0 0-4.8 2.4 2.4 0 0 0 0 4.8z" fill="#fff"/></g><defs><linearGradient id="A" x1="2.242" y1="0" x2="17.488" y2="35.099" gradientUnits="userSpaceOnUse"><stop stop-color="#fff" stop-opacity=".25"/><stop offset=".606" stop-color="#fff" stop-opacity=".02"/><stop offset=".701" stop-color="#fff" stop-opacity=".02"/><stop offset="1" stop-color="#fff" stop-opacity=".1"/></linearGradient><filter id="B" x="-115.377" y="-115.377" width="262.754" height="262.754" filterUnits="userSpaceOnUse" color-interpolation-filters="sRGB"><feFlood flood-opacity="0"/><feGaussianBlur stdDeviation="57.688"/><feComposite in2="SourceAlpha" operator="in"/><feBlend in="SourceGraphic"/></filter></defs></svg>