<svg xmlns="http://www.w3.org/2000/svg" width="32" height="32" fill="none" xmlns:v="https://vecta.io/nano"><g filter="url(#B)"><rect width="32" height="32" rx="16" fill="#c3c3c3" fill-opacity=".3" style="mix-blend-mode:luminosity"/><rect x=".5" y=".5" width="31" height="31" rx="15.5" stroke="url(#A)"/><path fill-rule="evenodd" d="M11.266 15.202h1.557c.071-1.237.307-2.376.67-3.295a4.802 4.802 0 0 0-2.227 3.295zM16 9.602A6.4 6.4 0 1 0 16 22.4a6.4 6.4 0 0 0 0-12.8zm0 1.6c-.06 0-.186.025-.372.21s-.398.498-.59.945c-.31.725-.538 1.713-.612 2.845h3.148c-.074-1.132-.301-2.12-.612-2.845-.192-.448-.4-.759-.59-.946s-.311-.21-.372-.21zm3.177 4c-.071-1.237-.307-2.376-.67-3.295a4.803 4.803 0 0 1 2.227 3.295h-1.557zm-1.603 1.6h-3.148c.074 1.13.301 2.119.612 2.844.192.448.4.759.59.946s.311.21.372.21.186-.026.372-.21.398-.498.59-.946c.31-.725.538-1.713.612-2.844zm.933 3.294c.363-.918.599-2.058.67-3.294h1.557a4.804 4.804 0 0 1-2.227 3.294zm-5.014 0c-.363-.918-.599-2.058-.669-3.294h-1.558a4.803 4.803 0 0 0 2.227 3.294z" fill="#fff"/></g><defs><linearGradient id="A" x1="2.242" y1="0" x2="17.488" y2="35.099" gradientUnits="userSpaceOnUse"><stop stop-color="#fff" stop-opacity=".25"/><stop offset=".606" stop-color="#fff" stop-opacity=".02"/><stop offset=".701" stop-color="#fff" stop-opacity=".02"/><stop offset="1" stop-color="#fff" stop-opacity=".1"/></linearGradient><filter id="B" x="-115.377" y="-115.377" width="262.754" height="262.754" filterUnits="userSpaceOnUse" color-interpolation-filters="sRGB"><feFlood flood-opacity="0"/><feGaussianBlur stdDeviation="57.688"/><feComposite in2="SourceAlpha" operator="in"/><feBlend in="SourceGraphic"/></filter></defs></svg>