<svg width="32" height="32" viewBox="0 0 32 32" fill="none" xmlns="http://www.w3.org/2000/svg">
<g filter="url(#filter0_b_58_817)">
<rect width="32" height="32" rx="16" fill="#C3C3C3" fill-opacity="0.3" style="mix-blend-mode:luminosity"/>
<rect x="0.5" y="0.5" width="31" height="31" rx="15.5" stroke="url(#paint0_linear_58_817)"/>
<path fill-rule="evenodd" clip-rule="evenodd" d="M16 14.1984C16.6365 14.1984 17.247 13.9456 17.6971 13.4955C18.1472 13.0454 18.4 12.435 18.4 11.7984C18.4 11.1619 18.1472 10.5515 17.6971 10.1014C17.247 9.65129 16.6365 9.39844 16 9.39844C15.3635 9.39844 14.7531 9.65129 14.303 10.1014C13.8529 10.5515 13.6 11.1619 13.6 11.7984C13.6 12.435 13.8529 13.0454 14.303 13.4955C14.7531 13.9456 15.3635 14.1984 16 14.1984ZM10.4 21.3984C10.4 20.663 10.5449 19.9348 10.8263 19.2554C11.1077 18.576 11.5202 17.9586 12.0402 17.4386C12.5602 16.9186 13.1776 16.5061 13.857 16.2247C14.5364 15.9433 15.2646 15.7984 16 15.7984C16.7354 15.7984 17.4636 15.9433 18.1431 16.2247C18.8225 16.5061 19.4398 16.9186 19.9598 17.4386C20.4798 17.9586 20.8923 18.576 21.1738 19.2554C21.4552 19.9348 21.6 20.663 21.6 21.3984H10.4Z" fill="white"/>
</g>
<defs>
<filter id="filter0_b_58_817" x="-115.377" y="-115.377" width="262.754" height="262.754" filterUnits="userSpaceOnUse" color-interpolation-filters="sRGB">
<feFlood flood-opacity="0" result="BackgroundImageFix"/>
<feGaussianBlur in="BackgroundImageFix" stdDeviation="57.6885"/>
<feComposite in2="SourceAlpha" operator="in" result="effect1_backgroundBlur_58_817"/>
<feBlend mode="normal" in="SourceGraphic" in2="effect1_backgroundBlur_58_817" result="shape"/>
</filter>
<linearGradient id="paint0_linear_58_817" x1="2.24176" y1="-7.09502e-06" x2="17.4878" y2="35.0987" gradientUnits="userSpaceOnUse">
<stop stop-color="white" stop-opacity="0.25"/>
<stop offset="0.605751" stop-color="white" stop-opacity="0.02"/>
<stop offset="0.701033" stop-color="white" stop-opacity="0.02"/>
<stop offset="1" stop-color="white" stop-opacity="0.1"/>
</linearGradient>
</defs>
</svg>
