<svg width="22" height="22" viewBox="0 0 22 22" fill="none" xmlns="http://www.w3.org/2000/svg">
<path fill-rule="evenodd" clip-rule="evenodd" d="M11 19.7999C13.3339 19.7999 15.5722 18.8728 17.2226 17.2225C18.8729 15.5722 19.8 13.3339 19.8 11C19.8 8.66605 18.8729 6.42773 17.2226 4.77741C15.5722 3.12709 13.3339 2.19995 11 2.19995C8.66611 2.19995 6.42779 3.12709 4.77747 4.77741C3.12715 6.42773 2.20001 8.66605 2.20001 11C2.20001 13.3339 3.12715 15.5722 4.77747 17.2225C6.42779 18.8728 8.66611 19.7999 11 19.7999ZM10.5105 7.88475C10.3449 7.77422 10.1523 7.71074 9.95338 7.70108C9.75447 7.69142 9.55666 7.73594 9.38107 7.82989C9.20548 7.92384 9.05868 8.0637 8.95635 8.23454C8.85402 8.40538 8.79998 8.6008 8.80001 8.79995V13.2C8.79998 13.3991 8.85402 13.5945 8.95635 13.7654C9.05868 13.9362 9.20548 14.0761 9.38107 14.17C9.55666 14.264 9.75447 14.3085 9.95338 14.2988C10.1523 14.2892 10.3449 14.2257 10.5105 14.1151L13.8105 11.9152C13.9612 11.8147 14.0847 11.6786 14.1701 11.519C14.2556 11.3593 14.3003 11.181 14.3003 11C14.3003 10.8189 14.2556 10.6406 14.1701 10.481C14.0847 10.3213 13.9612 10.1852 13.8105 10.0848L10.5105 7.88475Z" fill="url(#paint0_linear_2_1028)"/>
<defs>
<linearGradient id="paint0_linear_2_1028" x1="11" y1="2.19995" x2="11" y2="19.7999" gradientUnits="userSpaceOnUse">
<stop stop-color="#5CB170"/>
<stop offset="1" stop-color="#D6DE6D"/>
</linearGradient>
</defs>
</svg>
