<svg width="24" height="25" viewBox="0 0 24 25" fill="none" xmlns="http://www.w3.org/2000/svg">
<path fill-rule="evenodd" clip-rule="evenodd" d="M3.59998 6.50005C3.59998 6.18179 3.7264 5.87656 3.95145 5.65152C4.17649 5.42648 4.48172 5.30005 4.79998 5.30005H19.2C19.5182 5.30005 19.8235 5.42648 20.0485 5.65152C20.2735 5.87656 20.4 6.18179 20.4 6.50005C20.4 6.81831 20.2735 7.12353 20.0485 7.34858C19.8235 7.57362 19.5182 7.70005 19.2 7.70005H4.79998C4.48172 7.70005 4.17649 7.57362 3.95145 7.34858C3.7264 7.12353 3.59998 6.81831 3.59998 6.50005ZM3.59998 12.5C3.59998 12.1818 3.7264 11.8766 3.95145 11.6515C4.17649 11.4265 4.48172 11.3 4.79998 11.3H19.2C19.5182 11.3 19.8235 11.4265 20.0485 11.6515C20.2735 11.8766 20.4 12.1818 20.4 12.5C20.4 12.8183 20.2735 13.1235 20.0485 13.3486C19.8235 13.5736 19.5182 13.7 19.2 13.7H4.79998C4.48172 13.7 4.17649 13.5736 3.95145 13.3486C3.7264 13.1235 3.59998 12.8183 3.59998 12.5ZM3.59998 18.5C3.59998 18.1818 3.7264 17.8766 3.95145 17.6515C4.17649 17.4265 4.48172 17.3 4.79998 17.3H19.2C19.5182 17.3 19.8235 17.4265 20.0485 17.6515C20.2735 17.8766 20.4 18.1818 20.4 18.5C20.4 18.8183 20.2735 19.1235 20.0485 19.3486C19.8235 19.5736 19.5182 19.7 19.2 19.7H4.79998C4.48172 19.7 4.17649 19.5736 3.95145 19.3486C3.7264 19.1235 3.59998 18.8183 3.59998 18.5Z" fill="white"/>
</svg>
