<svg width="20" height="20" viewBox="0 0 20 20" fill="none" xmlns="http://www.w3.org/2000/svg">
<path d="M3.33325 16.6667H9.11932M9.11932 16.6667H9.21385M9.11932 16.6667C9.13506 16.6668 9.15081 16.6669 9.16659 16.6669C9.18236 16.6669 9.19811 16.6668 9.21385 16.6667M9.11932 16.6667C5.91942 16.6413 3.33325 14.039 3.33325 10.8331V7.43571C3.33325 7.01088 3.67746 6.66667 4.10229 6.66667H14.2305C14.6553 6.66667 14.9999 7.01088 14.9999 7.43571V7.5M9.21385 16.6667H14.9999M9.21385 16.6667C12.4138 16.6413 14.9999 14.039 14.9999 10.8331M14.9999 7.5H16.2499C17.4005 7.5 18.3333 8.43274 18.3333 9.58333C18.3333 10.7339 17.4005 11.6667 16.2499 11.6667H14.9999V10.8331M14.9999 7.5V10.8331M12.4999 2.5L11.6666 4.16667M9.99992 2.5L9.16659 4.16667M7.49992 2.5L6.66659 4.16667" stroke="#000B19" stroke-width="1.5" stroke-linecap="round" stroke-linejoin="round"/>
</svg>
