<svg width="20" height="20" viewBox="0 0 20 20" fill="none" xmlns="http://www.w3.org/2000/svg">
<path d="M1.66675 16.6663H3.33341M3.33341 16.6663H12.5001M3.33341 16.6663V11.9731C3.33341 11.5353 3.33341 11.3163 3.38591 11.1121C3.43244 10.9312 3.50902 10.7595 3.61255 10.604C3.72929 10.4286 3.8927 10.2817 4.21802 9.98942L6.136 8.26632C6.76495 7.70127 7.07966 7.41854 7.43549 7.31128C7.74919 7.21672 8.084 7.21672 8.3977 7.31128C8.75384 7.41863 9.06897 7.70151 9.69897 8.2675L11.6156 9.98942C11.9413 10.282 12.1038 10.4285 12.2207 10.604C12.3242 10.7595 12.4007 10.9312 12.4472 11.1121C12.4997 11.3163 12.5001 11.5353 12.5001 11.9731V16.6663M12.5001 16.6663H16.6667M16.6667 16.6663H18.3334M16.6667 16.6663V5.9971C16.6667 5.0655 16.6667 4.59901 16.4853 4.24284C16.3255 3.92924 16.0698 3.67445 15.7562 3.51466C15.3997 3.33301 14.9337 3.33301 14.0002 3.33301H8.50024C7.56682 3.33301 7.09976 3.33301 6.74325 3.51466C6.42964 3.67445 6.17486 3.92924 6.01507 4.24284C5.83341 4.59936 5.83341 5.06642 5.83341 5.99984V8.33317" stroke="#000B19" stroke-width="1.5" stroke-linecap="round" stroke-linejoin="round"/>
</svg>
