<svg width="20" height="20" viewBox="0 0 20 20" fill="none" xmlns="http://www.w3.org/2000/svg">
<path d="M3.67497 13.958C3.47497 16.3663 5.29163 18.333 7.7083 18.333H11.7C14.4166 18.333 16.2833 16.1413 15.8333 13.458C15.3583 10.6413 12.6416 8.33301 9.7833 8.33301C6.6833 8.33301 3.9333 10.8663 3.67497 13.958Z" stroke="#000B19" stroke-width="1.5" stroke-linecap="round" stroke-linejoin="round"/>
<path d="M8.72494 6.24967C9.87553 6.24967 10.8083 5.31693 10.8083 4.16634C10.8083 3.01575 9.87553 2.08301 8.72494 2.08301C7.57434 2.08301 6.6416 3.01575 6.6416 4.16634C6.6416 5.31693 7.57434 6.24967 8.72494 6.24967Z" stroke="#000B19" stroke-width="1.5" stroke-linecap="round" stroke-linejoin="round"/>
<path d="M14.4167 7.25033C15.3371 7.25033 16.0833 6.50413 16.0833 5.58366C16.0833 4.66318 15.3371 3.91699 14.4167 3.91699C13.4962 3.91699 12.75 4.66318 12.75 5.58366C12.75 6.50413 13.4962 7.25033 14.4167 7.25033Z" stroke="#000B19" stroke-width="1.5" stroke-linecap="round" stroke-linejoin="round"/>
<path d="M17.5 10.583C18.1904 10.583 18.75 10.0234 18.75 9.33301C18.75 8.64265 18.1904 8.08301 17.5 8.08301C16.8096 8.08301 16.25 8.64265 16.25 9.33301C16.25 10.0234 16.8096 10.583 17.5 10.583Z" stroke="#000B19" stroke-width="1.5" stroke-linecap="round" stroke-linejoin="round"/>
<path d="M3.30827 8.91634C4.22874 8.91634 4.97493 8.17015 4.97493 7.24967C4.97493 6.3292 4.22874 5.58301 3.30827 5.58301C2.38779 5.58301 1.6416 6.3292 1.6416 7.24967C1.6416 8.17015 2.38779 8.91634 3.30827 8.91634Z" stroke="#000B19" stroke-width="1.5" stroke-linecap="round" stroke-linejoin="round"/>
</svg>
