<svg width="20" height="20" viewBox="0 0 20 20" fill="none" xmlns="http://www.w3.org/2000/svg">
<path d="M6.95223 12.1585C7.34043 11.7423 7.80981 11.4099 8.33142 11.182C8.85302 10.9541 9.4162 10.8357 9.98541 10.8337C10.5546 10.8317 11.1181 10.9464 11.6413 11.1707C12.1645 11.3949 12.6363 11.7239 13.0274 12.1375M5.12443 9.62027C5.74555 8.9542 6.49656 8.42245 7.33113 8.05784C8.16569 7.69323 9.06597 7.50357 9.9767 7.50039C10.8874 7.49721 11.7887 7.68075 12.6258 8.03952C13.4629 8.3983 14.218 8.92484 14.8438 9.58656M2.68628 7.34728C3.61796 6.34818 4.74448 5.55056 5.99633 5.00364C7.24817 4.45672 8.59818 4.17182 9.96428 4.16705C11.3304 4.16228 12.6839 4.43759 13.9396 4.97576C15.1952 5.51393 16.3275 6.30414 17.2661 7.29672M9.99992 15.8337C9.53968 15.8337 9.16659 15.4606 9.16659 15.0004C9.16659 14.5401 9.53968 14.1671 9.99992 14.1671C10.4602 14.1671 10.8333 14.5401 10.8333 15.0004C10.8333 15.4606 10.4602 15.8337 9.99992 15.8337Z" stroke="#000B19" stroke-width="1.5" stroke-linecap="round" stroke-linejoin="round"/>
</svg>
