<svg width="32" height="32" viewBox="0 0 32 32" fill="none" xmlns="http://www.w3.org/2000/svg">
<g filter="url(#filter0_b_3_3430)">
<path d="M0 16C0 7.16344 7.16344 0 16 0V0C24.8366 0 32 7.16344 32 16V16C32 24.8366 24.8366 32 16 32V32C7.16344 32 0 24.8366 0 16V16Z" fill="#C3C3C3" fill-opacity="0.3" style="mix-blend-mode:luminosity"/>
<path d="M16 31.1924C7.60949 31.1924 0.80764 24.3905 0.80764 16C0.80764 7.60949 7.60949 0.80764 16 0.80764C24.3905 0.80764 31.1924 7.60949 31.1924 16C31.1924 24.3905 24.3905 31.1924 16 31.1924Z" stroke="url(#paint0_linear_3_3430)" stroke-width="1.61528"/>
<path fill-rule="evenodd" clip-rule="evenodd" d="M11.4344 11.4356C11.5844 11.2857 11.7879 11.2014 12 11.2014C12.2122 11.2014 12.4156 11.2857 12.5656 11.4356L16 14.87L19.4344 11.4356C19.5082 11.3592 19.5965 11.2983 19.6941 11.2564C19.7917 11.2144 19.8967 11.1924 20.0029 11.1914C20.1091 11.1905 20.2145 11.2108 20.3128 11.251C20.4111 11.2912 20.5004 11.3506 20.5755 11.4257C20.6507 11.5008 20.7101 11.5902 20.7503 11.6885C20.7905 11.7868 20.8107 11.8921 20.8098 11.9984C20.8089 12.1046 20.7868 12.2096 20.7449 12.3072C20.703 12.4048 20.642 12.493 20.5656 12.5668L17.1312 16.0012L20.5656 19.4356C20.7114 19.5865 20.792 19.7886 20.7902 19.9984C20.7883 20.2081 20.7042 20.4088 20.5559 20.5571C20.4076 20.7054 20.2069 20.7896 19.9971 20.7914C19.7874 20.7932 19.5853 20.7126 19.4344 20.5668L16 17.1324L12.5656 20.5668C12.4147 20.7126 12.2127 20.7932 12.0029 20.7914C11.7931 20.7896 11.5925 20.7054 11.4442 20.5571C11.2958 20.4088 11.2117 20.2081 11.2099 19.9984C11.2081 19.7886 11.2887 19.5865 11.4344 19.4356L14.8688 16.0012L11.4344 12.5668C11.2844 12.4168 11.2002 12.2134 11.2002 12.0012C11.2002 11.7891 11.2844 11.5857 11.4344 11.4356Z" fill="white"/>
</g>
<defs>
<filter id="filter0_b_3_3430" x="-115.377" y="-115.377" width="262.754" height="262.754" filterUnits="userSpaceOnUse" color-interpolation-filters="sRGB">
<feFlood flood-opacity="0" result="BackgroundImageFix"/>
<feGaussianBlur in="BackgroundImageFix" stdDeviation="57.6885"/>
<feComposite in2="SourceAlpha" operator="in" result="effect1_backgroundBlur_3_3430"/>
<feBlend mode="normal" in="SourceGraphic" in2="effect1_backgroundBlur_3_3430" result="shape"/>
</filter>
<linearGradient id="paint0_linear_3_3430" x1="2.24176" y1="-7.09502e-06" x2="17.4878" y2="35.0987" gradientUnits="userSpaceOnUse">
<stop stop-color="white" stop-opacity="0.25"/>
<stop offset="0.605751" stop-color="white" stop-opacity="0.02"/>
<stop offset="0.701033" stop-color="white" stop-opacity="0.02"/>
<stop offset="1" stop-color="white" stop-opacity="0.1"/>
</linearGradient>
</defs>
</svg>
