<svg width="20" height="20" viewBox="0 0 20 20" fill="none" xmlns="http://www.w3.org/2000/svg">
<path fill-rule="evenodd" clip-rule="evenodd" d="M9.9999 19.6004C12.546 19.6004 14.9878 18.589 16.7881 16.7886C18.5885 14.9883 19.5999 12.5465 19.5999 10.0004C19.5999 7.45431 18.5885 5.01252 16.7881 3.21217C14.9878 1.41182 12.546 0.400391 9.9999 0.400391C7.45382 0.400391 5.01203 1.41182 3.21168 3.21217C1.41133 5.01252 0.399902 7.45431 0.399902 10.0004C0.399902 12.5465 1.41133 14.9883 3.21168 16.7886C5.01203 18.589 7.45382 19.6004 9.9999 19.6004ZM9.4659 6.60199C9.28518 6.48142 9.07512 6.41216 8.85812 6.40162C8.64113 6.39108 8.42534 6.43965 8.23378 6.54214C8.04223 6.64463 7.88209 6.79721 7.77045 6.98358C7.65882 7.16995 7.59987 7.38314 7.5999 7.60039V12.4004C7.59987 12.6176 7.65882 12.8308 7.77045 13.0172C7.88209 13.2036 8.04223 13.3561 8.23378 13.4586C8.42534 13.5611 8.64113 13.6097 8.85812 13.5992C9.07512 13.5886 9.28518 13.5194 9.4659 13.3988L13.0659 10.9988C13.2303 10.8892 13.365 10.7407 13.4582 10.5666C13.5514 10.3924 13.6002 10.1979 13.6002 10.0004C13.6002 9.80286 13.5514 9.60838 13.4582 9.43421C13.365 9.26004 13.2303 9.11158 13.0659 9.00199L9.4659 6.60199Z" fill="#0C343D"/>
</svg>
