<svg width="20" height="20" viewBox="0 0 20 20" fill="none" xmlns="http://www.w3.org/2000/svg">
<path fill-rule="evenodd" clip-rule="evenodd" d="M5.05051 4.05036C6.36333 2.73754 8.14389 2 10.0005 2C11.8571 2 13.6377 2.73754 14.9505 4.05036C16.2633 5.36318 17.0009 7.14375 17.0009 9.00036C17.0009 10.857 16.2633 12.6375 14.9505 13.9504L10.0005 18.9004L5.05051 13.9504C4.40042 13.3003 3.88474 12.5286 3.53291 11.6793C3.18108 10.83 3 9.91967 3 9.00036C3 8.08104 3.18108 7.17073 3.53291 6.32141C3.88474 5.47208 4.40042 4.70038 5.05051 4.05036ZM10.0005 11.0004C10.5309 11.0004 11.0396 10.7896 11.4147 10.4146C11.7898 10.0395 12.0005 9.53079 12.0005 9.00036C12.0005 8.46992 11.7898 7.96122 11.4147 7.58614C11.0396 7.21107 10.5309 7.00036 10.0005 7.00036C9.47007 7.00036 8.96136 7.21107 8.58629 7.58614C8.21122 7.96122 8.0005 8.46992 8.0005 9.00036C8.0005 9.53079 8.21122 10.0395 8.58629 10.4146C8.96136 10.7896 9.47007 11.0004 10.0005 11.0004Z" fill="white"/>
</svg>
