<svg width="24" height="24" viewBox="0 0 24 24" fill="none" xmlns="http://www.w3.org/2000/svg">
<path d="M0 12C0 5.37258 5.37258 0 12 0V0C18.6274 0 24 5.37258 24 12V12C24 18.6274 18.6274 24 12 24V24C5.37258 24 0 18.6274 0 12V12Z" fill="url(#paint0_linear_3_2229)"/>
<path d="M13.9766 12.0006L10.4407 8.46476C10.1153 8.13938 10.1153 7.61182 10.4407 7.28643V7.28643C10.7661 6.96104 11.2937 6.96104 11.6191 7.28643L16.3332 12.0006L11.6191 16.7148C11.2937 17.0402 10.7661 17.0402 10.4407 16.7148V16.7148C10.1153 16.3894 10.1153 15.8618 10.4407 15.5364L13.9766 12.0006Z" fill="white"/>
<defs>
<linearGradient id="paint0_linear_3_2229" x1="26.6842" y1="12" x2="-5.19939" y2="13.8586" gradientUnits="userSpaceOnUse">
<stop stop-color="#5CB170"/>
<stop offset="1" stop-color="#D6DE6D"/>
</linearGradient>
</defs>
</svg>
