<svg width="24" height="24" viewBox="0 0 24 24" fill="none" xmlns="http://www.w3.org/2000/svg">
<g opacity="0.3">
<path d="M12 23.5C18.3513 23.5 23.5 18.3513 23.5 12C23.5 5.64873 18.3513 0.5 12 0.5C5.64873 0.5 0.5 5.64873 0.5 12C0.5 18.3513 5.64873 23.5 12 23.5Z" stroke="url(#paint0_linear_3_2234)"/>
<path d="M10.0234 12.0006L13.5593 8.46476C13.8847 8.13938 13.8847 7.61182 13.5593 7.28643V7.28643C13.2339 6.96104 12.7063 6.96104 12.3809 7.28643L7.66677 12.0006L12.3809 16.7148C12.7063 17.0402 13.2339 17.0402 13.5593 16.7148V16.7148C13.8847 16.3894 13.8847 15.8618 13.5593 15.5364L10.0234 12.0006Z" fill="#A7CD6F"/>
</g>
<defs>
<linearGradient id="paint0_linear_3_2234" x1="-2.68417" y1="12" x2="29.1994" y2="13.8586" gradientUnits="userSpaceOnUse">
<stop stop-color="#5CB170"/>
<stop offset="1" stop-color="#D6DE6D"/>
</linearGradient>
</defs>
</svg>
