<svg width="14" height="20" viewBox="0 0 14 20" fill="none" xmlns="http://www.w3.org/2000/svg">
<path d="M3.24219 6.07812C2.91927 6.07812 2.625 6 2.35938 5.84375C2.09375 5.68229 1.88021 5.46875 1.71875 5.20312C1.5625 4.9375 1.48438 4.64323 1.48438 4.32031C1.48438 3.9974 1.5625 3.70573 1.71875 3.44531C1.88021 3.17969 2.09375 2.96875 2.35938 2.8125C2.625 2.65104 2.91927 2.57031 3.24219 2.57031C3.5651 2.57031 3.85938 2.65104 4.125 2.8125C4.39062 2.96875 4.60156 3.17969 4.75781 3.44531C4.91406 3.70573 4.99219 3.9974 4.99219 4.32031C4.99219 4.64323 4.91406 4.9375 4.75781 5.20312C4.60156 5.46875 4.39062 5.68229 4.125 5.84375C3.85938 6 3.5651 6.07812 3.24219 6.07812ZM7.6875 14.2812L5.25 18.7344C5.125 18.9635 4.94792 19.1016 4.71875 19.1484C4.49479 19.2005 4.28646 19.1771 4.09375 19.0781C3.88542 18.974 3.75 18.8073 3.6875 18.5781C3.625 18.349 3.65104 18.1302 3.76562 17.9219L6.17188 13.5156L6.25 13.375L8.17969 9.82031H4.50781C4.28906 9.82031 4.10417 9.75781 3.95312 9.63281C3.80729 9.5026 3.71354 9.34115 3.67188 9.14844C3.63021 8.95052 3.66667 8.75 3.78125 8.54688L6.51562 3.88281C6.57812 3.76823 6.5651 3.66927 6.47656 3.58594C6.14323 3.2474 5.79167 2.92188 5.42188 2.60938C5.05208 2.29688 4.65885 1.99479 4.24219 1.70312H0.84375C0.609375 1.70312 0.408854 1.61979 0.242188 1.45312C0.0807292 1.28646 0 1.08333 0 0.84375C0 0.614583 0.0807292 0.416667 0.242188 0.25C0.408854 0.0833333 0.609375 0 0.84375 0H4.3125C4.45312 0 4.58594 0.0208333 4.71094 0.0625C4.84115 0.104167 4.97656 0.166667 5.11719 0.25C6.1849 0.963542 7.13021 1.76042 7.95312 2.64062C8.77604 3.51562 9.48698 4.42969 10.0859 5.38281C10.6901 6.33594 11.2005 7.28385 11.6172 8.22656C12.0339 9.16406 12.3724 10.0521 12.6328 10.8906C12.8932 11.7292 13.0938 12.474 13.2344 13.125L13.2656 13.2734C13.4635 14.2214 13.6068 15.0703 13.6953 15.8203C13.7839 16.5703 13.8359 17.1667 13.8516 17.6094C13.8724 18.0573 13.8828 18.2943 13.8828 18.3203C13.8828 18.5599 13.8021 18.763 13.6406 18.9297C13.4792 19.0964 13.2786 19.1797 13.0391 19.1797C12.8099 19.1797 12.612 19.0938 12.4453 18.9219C12.2839 18.7552 12.2031 18.5469 12.2031 18.2969C12.2031 18.2031 12.1901 17.9479 12.1641 17.5312C12.138 17.1146 12.0833 16.5807 12 15.9297C11.9219 15.2786 11.7943 14.5495 11.6172 13.7422L10.1016 10.9609L7.6875 14.2812ZM5.94531 8.15625H7.57031L6.875 7.11719C6.83333 7.0651 6.77865 7.03646 6.71094 7.03125C6.64323 7.02083 6.58594 7.05729 6.53906 7.14062L5.94531 8.15625Z" fill="#000B19"/>
</svg>
