<svg width="14" height="18" viewBox="0 0 14 18" fill="none" xmlns="http://www.w3.org/2000/svg">
<path d="M8.18136 3.41406C7.86365 3.41406 7.57459 3.33854 7.31417 3.1875C7.05897 3.03125 6.85324 2.82552 6.69699 2.57031C6.54595 2.3099 6.47042 2.02344 6.47042 1.71094C6.47042 1.39323 6.54595 1.10677 6.69699 0.851562C6.85324 0.591146 7.05897 0.385417 7.31417 0.234375C7.57459 0.078125 7.86365 0 8.18136 0C8.49386 0 8.77772 0.078125 9.03292 0.234375C9.29334 0.385417 9.49907 0.591146 9.65011 0.851562C9.80636 1.10677 9.88449 1.39323 9.88449 1.71094C9.88449 2.02344 9.80636 2.3099 9.65011 2.57031C9.49907 2.82552 9.29334 3.03125 9.03292 3.1875C8.77772 3.33854 8.49386 3.41406 8.18136 3.41406ZM5.50167 10.2266C5.33501 10.1328 5.16313 10.0339 4.98605 9.92969C4.81417 9.82031 4.66313 9.69271 4.53292 9.54688C4.40272 9.39583 4.31417 9.21094 4.2673 8.99219C4.22563 8.76823 4.25167 8.48958 4.34542 8.15625L4.98605 5.92188C5.02772 5.77083 5.00167 5.65625 4.90792 5.57812C4.81938 5.49479 4.71261 5.45833 4.58761 5.46875L3.48605 5.54688L3.15011 7.82031C3.11886 8.0651 3.03553 8.2474 2.90011 8.36719C2.76469 8.48698 2.58761 8.53646 2.36886 8.51562C2.15011 8.49479 1.98605 8.40625 1.87667 8.25C1.7673 8.09375 1.72824 7.89323 1.75949 7.64844L2.12667 4.85938C2.15792 4.63542 2.24386 4.45573 2.38449 4.32031C2.53032 4.1849 2.71261 4.10938 2.93136 4.09375L5.67355 3.89844C6.3923 3.84635 6.98605 3.92188 7.4548 4.125C7.92876 4.32812 8.34282 4.67188 8.69699 5.15625L10.0485 7.02344L12.0095 6.15625C12.2282 6.05729 12.4262 6.03646 12.6032 6.09375C12.7803 6.14583 12.9183 6.27344 13.0173 6.47656C13.1163 6.67448 13.1267 6.86198 13.0485 7.03906C12.9704 7.21615 12.822 7.35417 12.6032 7.45312L10.1267 8.55469C9.96001 8.63281 9.79074 8.64844 9.61886 8.60156C9.44699 8.54948 9.31157 8.45052 9.21261 8.30469L8.35324 7.04688C8.26469 6.92188 8.15532 6.86719 8.02511 6.88281C7.90011 6.89844 7.81678 6.97917 7.77511 7.125L7.19699 9.14844L10.1267 11.0703C10.2725 11.1641 10.3767 11.2917 10.4392 11.4531C10.5017 11.6146 10.5173 11.7786 10.486 11.9453C10.46 12.112 10.3845 12.2474 10.2595 12.3516L7.56417 14.6484C7.35063 14.8307 7.13709 14.9141 6.92355 14.8984C6.71001 14.8828 6.53813 14.8021 6.40792 14.6562C6.28292 14.5156 6.22563 14.3438 6.23605 14.1406C6.24647 13.9323 6.35584 13.7396 6.56417 13.5625L8.49386 11.9062L5.50167 10.2266ZM0.267299 16.9766C0.111049 16.8359 0.0225074 16.6536 0.00167411 16.4297C-0.0139509 16.2057 0.0797991 15.9922 0.282924 15.7891L2.90792 13.1719L3.83761 9.88281C3.97824 10.0599 4.15532 10.2318 4.36886 10.3984C4.5824 10.5599 4.83761 10.7214 5.13449 10.8828L5.3923 11.0234L4.3298 13.7734C4.26209 13.9349 4.2048 14.0469 4.15792 14.1094C4.11626 14.1719 4.04334 14.2552 3.93917 14.3594L1.40792 16.8672C1.21001 17.0651 1.00688 17.1641 0.798549 17.1641C0.590216 17.1641 0.413132 17.1016 0.267299 16.9766Z" fill="#000B19"/>
</svg>
