<svg width="17" height="18" viewBox="0 0 17 18" fill="none" xmlns="http://www.w3.org/2000/svg">
<path d="M10.9766 3.41406C10.6589 3.41406 10.3698 3.33854 10.1094 3.1875C9.84896 3.03125 9.64062 2.82552 9.48438 2.57031C9.33333 2.3099 9.25781 2.02083 9.25781 1.70312C9.25781 1.38542 9.33333 1.09896 9.48438 0.84375C9.64062 0.583333 9.84896 0.377604 10.1094 0.226562C10.3698 0.0755208 10.6589 0 10.9766 0C11.2891 0 11.5729 0.0755208 11.8281 0.226562C12.0885 0.377604 12.2943 0.583333 12.4453 0.84375C12.5964 1.09896 12.6719 1.38542 12.6719 1.70312C12.6719 2.02083 12.5964 2.3099 12.4453 2.57031C12.2943 2.82552 12.0885 3.03125 11.8281 3.1875C11.5729 3.33854 11.2891 3.41406 10.9766 3.41406ZM5.65625 17.3594C5.43229 17.3594 5.24219 17.2812 5.08594 17.125C4.92969 16.9688 4.85156 16.7786 4.85156 16.5547V12.1719L4.25 8.64062L0.671875 8.04688C0.46875 8.01042 0.304688 7.92708 0.179688 7.79688C0.0598958 7.66146 0 7.46094 0 7.19531V2.39844C0 2.15885 0.0729167 1.96615 0.21875 1.82031C0.369792 1.66927 0.565104 1.59375 0.804688 1.59375C1.04948 1.59375 1.24479 1.66927 1.39062 1.82031C1.54167 1.96615 1.61719 2.15885 1.61719 2.39844V6.45312H5.65625C6.08854 6.45312 6.47135 6.35417 6.80469 6.15625C7.13802 5.95312 7.41667 5.67188 7.64062 5.3125C7.70312 5.20833 7.71354 5.10677 7.67188 5.00781C7.63542 4.90885 7.56771 4.84115 7.46875 4.80469L3.21094 3.38281C2.95573 3.29948 2.78646 3.15625 2.70312 2.95312C2.625 2.74479 2.61719 2.54427 2.67969 2.35156C2.74219 2.15885 2.86198 2.00521 3.03906 1.89062C3.22135 1.77083 3.45052 1.75781 3.72656 1.85156L15.5703 5.80469C15.8255 5.88802 15.9922 6.03385 16.0703 6.24219C16.1484 6.44531 16.1562 6.64323 16.0938 6.83594C16.0365 7.02865 15.9167 7.1849 15.7344 7.30469C15.5521 7.41927 15.3255 7.42969 15.0547 7.33594L11.1016 6.00781C10.9453 5.95052 10.8203 5.9401 10.7266 5.97656C10.6328 6.00781 10.5703 6.0625 10.5391 6.14062C10.1641 6.94792 9.61458 7.6276 8.89062 8.17969C8.16667 8.72656 7.35938 9.07292 6.46875 9.21875V16.5547C6.46875 16.7786 6.38802 16.9688 6.22656 17.125C6.0651 17.2812 5.875 17.3594 5.65625 17.3594Z" fill="#000B19"/>
</svg>
