<svg width="40" height="40" viewBox="0 0 40 40" fill="none" xmlns="http://www.w3.org/2000/svg">
<g filter="url(#filter0_b_39_8107)">
<rect x="1" y="1" width="38" height="38" rx="19" stroke="url(#paint0_linear_39_8107)" stroke-width="2"/>
</g>
<g filter="url(#filter1_b_39_8107)">
<rect x="4" y="4" width="32" height="32" rx="16" fill="#C3C3C3" fill-opacity="0.3" style="mix-blend-mode:luminosity"/>
<rect x="4.5" y="4.5" width="31" height="31" rx="15.5" stroke="url(#paint1_linear_39_8107)"/>
<g clip-path="url(#clip0_39_8107)">
<mask id="mask0_39_8107" style="mask-type:luminance" maskUnits="userSpaceOnUse" x="10" y="10" width="20" height="20">
<path d="M10 10H30V30H10V10Z" fill="white"/>
</mask>
<g mask="url(#mask0_39_8107)">
<path d="M24.243 25.243C23.1177 26.3683 21.5915 27.0005 20 27.0005C18.4086 27.0005 16.8823 26.3683 15.757 25.243C14.6317 24.1177 13.9995 22.5914 13.9995 21C13.9995 19.4086 14.6317 17.8823 15.757 16.757C15.757 19 16 21 19 22C19 20 20 14 21.5 13C22.5 15 23.071 15.586 24.242 16.757C24.8002 17.3135 25.2428 17.9749 25.5445 18.703C25.8462 19.4312 26.001 20.2118 26 21C26.0011 21.7881 25.8464 22.5687 25.5449 23.2968C25.2434 24.025 24.8009 24.6864 24.243 25.243Z" fill="white" stroke="white" stroke-width="2" stroke-linecap="round" stroke-linejoin="round"/>
<path d="M17.879 25.121C18.1557 25.4075 18.4868 25.6361 18.8528 25.7933C19.2188 25.9505 19.6125 26.0333 20.0108 26.0368C20.4091 26.0402 20.8042 25.9643 21.1729 25.8135C21.5416 25.6626 21.8765 25.4399 22.1582 25.1582C22.4399 24.8765 22.6626 24.5416 22.8135 24.1729C22.9643 23.8042 23.0402 23.4091 23.0368 23.0108C23.0333 22.6125 22.9505 22.2188 22.7933 21.8528C22.6361 21.4868 22.4075 21.1557 22.121 20.879C21.536 20.293 21.25 20 20.75 19C20 19.5 19.5 22.5 19.5 23.5C17.879 23.5 17 23 17 23C17 23.768 17.293 24.536 17.879 25.121Z" fill="white"/>
</g>
</g>
</g>
<defs>
<filter id="filter0_b_39_8107" x="-115.377" y="-115.377" width="270.754" height="270.754" filterUnits="userSpaceOnUse" color-interpolation-filters="sRGB">
<feFlood flood-opacity="0" result="BackgroundImageFix"/>
<feGaussianBlur in="BackgroundImageFix" stdDeviation="57.6885"/>
<feComposite in2="SourceAlpha" operator="in" result="effect1_backgroundBlur_39_8107"/>
<feBlend mode="normal" in="SourceGraphic" in2="effect1_backgroundBlur_39_8107" result="shape"/>
</filter>
<filter id="filter1_b_39_8107" x="-111.377" y="-111.377" width="262.754" height="262.754" filterUnits="userSpaceOnUse" color-interpolation-filters="sRGB">
<feFlood flood-opacity="0" result="BackgroundImageFix"/>
<feGaussianBlur in="BackgroundImageFix" stdDeviation="57.6885"/>
<feComposite in2="SourceAlpha" operator="in" result="effect1_backgroundBlur_39_8107"/>
<feBlend mode="normal" in="SourceGraphic" in2="effect1_backgroundBlur_39_8107" result="shape"/>
</filter>
<linearGradient id="paint0_linear_39_8107" x1="42.0263" y1="20" x2="-5.79909" y2="22.7879" gradientUnits="userSpaceOnUse">
<stop stop-color="#5CB170"/>
<stop offset="1" stop-color="#D6DE6D"/>
</linearGradient>
<linearGradient id="paint1_linear_39_8107" x1="6.24176" y1="3.99999" x2="21.4878" y2="39.0987" gradientUnits="userSpaceOnUse">
<stop stop-color="white" stop-opacity="0.25"/>
<stop offset="0.605751" stop-color="white" stop-opacity="0.02"/>
<stop offset="0.701033" stop-color="white" stop-opacity="0.02"/>
<stop offset="1" stop-color="white" stop-opacity="0.1"/>
</linearGradient>
<clipPath id="clip0_39_8107">
<rect width="20" height="20" fill="white" transform="translate(10 10)"/>
</clipPath>
</defs>
</svg>
