<svg width="18" height="18" viewBox="0 0 18 18" fill="none" xmlns="http://www.w3.org/2000/svg">
<path d="M5.52953 2.91355C6.12729 2.86584 6.69476 2.63081 7.1512 2.24189C7.66696 1.80211 8.32257 1.56055 9.00036 1.56055C9.67816 1.56055 10.3338 1.80211 10.8495 2.24189C11.306 2.63081 11.8734 2.86584 12.4712 2.91355C13.1468 2.96731 13.7812 3.26007 14.2604 3.73932C14.7397 4.21857 15.0324 4.85293 15.0862 5.52855C15.1339 6.12631 15.3689 6.69379 15.7579 7.15022C16.1976 7.66598 16.4392 8.32159 16.4392 8.99939C16.4392 9.67719 16.1976 10.3328 15.7579 10.8486C15.3689 11.305 15.1339 11.8725 15.0862 12.4702C15.0324 13.1458 14.7397 13.7802 14.2604 14.2595C13.7812 14.7387 13.1468 15.0315 12.4712 15.0852C11.8734 15.1329 11.306 15.368 10.8495 15.7569C10.3338 16.1967 9.67816 16.4382 9.00036 16.4382C8.32257 16.4382 7.66696 16.1967 7.1512 15.7569C6.69476 15.368 6.12729 15.1329 5.52953 15.0852C4.8539 15.0315 4.21955 14.7387 3.7403 14.2595C3.26105 13.7802 2.96828 13.1458 2.91453 12.4702C2.86682 11.8725 2.63178 11.305 2.24286 10.8486C1.80309 10.3328 1.56152 9.67719 1.56152 8.99939C1.56152 8.32159 1.80309 7.66598 2.24286 7.15022C2.63178 6.69379 2.86682 6.12631 2.91453 5.52855C2.96828 4.85293 3.26105 4.21857 3.7403 3.73932C4.21955 3.26007 4.8539 2.96731 5.52953 2.91355Z" fill="#0C343D"/>
<path d="M11.5004 7.33272L8.16703 10.6661L6.50036 8.99939M5.52953 2.91355C6.12729 2.86584 6.69476 2.63081 7.1512 2.24189C7.66696 1.80211 8.32257 1.56055 9.00036 1.56055C9.67816 1.56055 10.3338 1.80211 10.8495 2.24189C11.306 2.63081 11.8734 2.86584 12.4712 2.91355C13.1468 2.96731 13.7812 3.26007 14.2604 3.73932C14.7397 4.21857 15.0324 4.85293 15.0862 5.52855C15.1339 6.12631 15.3689 6.69379 15.7579 7.15022C16.1976 7.66598 16.4392 8.32159 16.4392 8.99939C16.4392 9.67719 16.1976 10.3328 15.7579 10.8486C15.3689 11.305 15.1339 11.8725 15.0862 12.4702C15.0324 13.1458 14.7397 13.7802 14.2604 14.2595C13.7812 14.7387 13.1468 15.0315 12.4712 15.0852C11.8734 15.1329 11.306 15.368 10.8495 15.7569C10.3338 16.1967 9.67816 16.4382 9.00036 16.4382C8.32257 16.4382 7.66696 16.1967 7.1512 15.7569C6.69476 15.368 6.12729 15.1329 5.52953 15.0852C4.8539 15.0315 4.21955 14.7387 3.7403 14.2595C3.26105 13.7802 2.96828 13.1458 2.91453 12.4702C2.86682 11.8725 2.63178 11.305 2.24286 10.8486C1.80309 10.3328 1.56152 9.67719 1.56152 8.99939C1.56152 8.32159 1.80309 7.66598 2.24286 7.15022C2.63178 6.69379 2.86682 6.12631 2.91453 5.52855C2.96828 4.85293 3.26105 4.21857 3.7403 3.73932C4.21955 3.26007 4.8539 2.96731 5.52953 2.91355Z" stroke="#F5F9FF" stroke-width="1.5" stroke-linecap="round" stroke-linejoin="round"/>
</svg>
