<svg viewBox="0 0 145 145" fill="none" xmlns="http://www.w3.org/2000/svg">
<path d="M143.534 121.804C143.829 122.34 143.439 123.003 142.829 123.003H0.788086C0.945896 122.635 1.10374 122.277 1.26163 121.919C1.27212 121.899 1.28273 121.878 1.29316 121.856L12.3004 102.01L45.5429 42.0702C60.4015 15.3099 84.4784 15.3099 99.3159 42.0702L103.546 49.6889L116.227 72.5557L117.7 75.2179L143.534 121.804Z" fill="url(#paint0_linear_1793_19914)"/>
<path d="M144.207 123.005H61.064L71.8607 102.569L82.8889 81.6806C89.0029 70.0842 97.2635 64.9489 105.261 66.2959C109.06 66.9272 112.795 69.0108 116.226 72.5571L117.699 75.2194L144.207 123.005Z" fill="url(#paint1_linear_1793_19914)"/>
<path d="M0.788086 123.006C0.945896 122.627 1.11431 122.259 1.27212 121.89L12.2899 102.012L17.3725 93.7516C19.656 90.037 22.1816 86.9538 24.865 84.4915C27.3168 82.2288 29.9055 80.5031 32.5679 79.3035C44.2275 74.0313 57.2656 78.8298 66.4313 93.7518L71.8612 102.57L84.4363 123.006H0.788086Z" fill="url(#paint2_linear_1793_19914)"/>
<defs>
<linearGradient id="paint0_linear_1793_19914" x1="143.64" y1="72.5062" x2="0.783462" y2="72.5062" gradientUnits="userSpaceOnUse">
<stop offset="0.1171" stop-color="#1C5589"/>
<stop offset="0.9028" stop-color="#159F84"/>
</linearGradient>
<linearGradient id="paint1_linear_1793_19914" x1="144.203" y1="94.5525" x2="61.0598" y2="94.5525" gradientUnits="userSpaceOnUse">
<stop stop-color="#5BB271"/>
<stop offset="1" stop-color="#F0E970"/>
</linearGradient>
<linearGradient id="paint2_linear_1793_19914" x1="84.4336" y1="100.124" x2="0.783464" y2="100.124" gradientUnits="userSpaceOnUse">
<stop stop-color="#5BB271"/>
<stop offset="1" stop-color="#F0E970"/>
</linearGradient>
</defs>
</svg>
