<svg width="40" height="41" viewBox="0 0 40 41" fill="none" xmlns="http://www.w3.org/2000/svg">
<path fill-rule="evenodd" clip-rule="evenodd" d="M36 20.1504C36 24.3939 34.3143 28.4635 31.3137 31.4641C28.3131 34.4647 24.2435 36.1504 20 36.1504C15.7565 36.1504 11.6869 34.4647 8.68629 31.4641C5.68571 28.4635 4 24.3939 4 20.1504C4 15.9069 5.68571 11.8373 8.68629 8.83668C11.6869 5.8361 15.7565 4.15039 20 4.15039C24.2435 4.15039 28.3131 5.8361 31.3137 8.83668C34.3143 11.8373 36 15.9069 36 20.1504ZM20 14.1504C19.6486 14.15 19.3033 14.2423 18.9989 14.4179C18.6945 14.5934 18.4417 14.8461 18.266 15.1504C18.1391 15.3861 17.9662 15.594 17.7575 15.7617C17.5488 15.9294 17.3086 16.0535 17.051 16.1266C16.7935 16.1997 16.5239 16.2204 16.2582 16.1874C15.9925 16.1544 15.7362 16.0683 15.5044 15.9344C15.2726 15.8005 15.07 15.6214 14.9087 15.4077C14.7473 15.1941 14.6306 14.9502 14.5653 14.6906C14.4999 14.4309 14.4874 14.1608 14.5284 13.8963C14.5694 13.6317 14.6631 13.3781 14.804 13.1504C15.4644 12.0066 16.4838 11.1127 17.7041 10.6073C18.9243 10.1019 20.2772 10.0133 21.5529 10.3551C22.8287 10.6969 23.956 11.4502 24.76 12.498C25.5641 13.5458 25.9999 14.8296 26 16.1504C26.0004 17.3916 25.6159 18.6024 24.8995 19.6161C24.1832 20.6297 23.1702 21.3964 22 21.8104V22.1504C22 22.6808 21.7893 23.1895 21.4142 23.5646C21.0391 23.9397 20.5304 24.1504 20 24.1504C19.4696 24.1504 18.9609 23.9397 18.5858 23.5646C18.2107 23.1895 18 22.6808 18 22.1504V20.1504C18 19.62 18.2107 19.1112 18.5858 18.7362C18.9609 18.3611 19.4696 18.1504 20 18.1504C20.5304 18.1504 21.0391 17.9397 21.4142 17.5646C21.7893 17.1895 22 16.6808 22 16.1504C22 15.62 21.7893 15.1112 21.4142 14.7362C21.0391 14.3611 20.5304 14.1504 20 14.1504ZM20 30.1504C20.5304 30.1504 21.0391 29.9397 21.4142 29.5646C21.7893 29.1895 22 28.6808 22 28.1504C22 27.62 21.7893 27.1112 21.4142 26.7362C21.0391 26.3611 20.5304 26.1504 20 26.1504C19.4696 26.1504 18.9609 26.3611 18.5858 26.7362C18.2107 27.1112 18 27.62 18 28.1504C18 28.6808 18.2107 29.1895 18.5858 29.5646C18.9609 29.9397 19.4696 30.1504 20 30.1504Z" fill="url(#paint0_linear_1793_19232)"/>
<defs>
<linearGradient id="paint0_linear_1793_19232" x1="39.5789" y1="20.1504" x2="-2.93253" y2="22.6286" gradientUnits="userSpaceOnUse">
<stop stop-color="#5CB170"/>
<stop offset="1" stop-color="#D6DE6D"/>
</linearGradient>
</defs>
</svg>
