<svg width="40" height="40" viewBox="0 0 40 40" fill="none" xmlns="http://www.w3.org/2000/svg">
<path d="M23.0467 16.9534C21.7965 15.7036 20.1011 15.0015 18.3333 15.0015C16.5656 15.0015 14.8702 15.7036 13.62 16.9534L6.95333 23.6201C6.3166 24.2351 5.80871 24.9707 5.45932 25.7841C5.10993 26.5974 4.92602 27.4722 4.91833 28.3574C4.91064 29.2426 5.07931 30.1205 5.41452 30.9398C5.74972 31.7591 6.24475 32.5035 6.8707 33.1294C7.49665 33.7554 8.24099 34.2504 9.0603 34.5856C9.87961 34.9208 10.7575 35.0895 11.6427 35.0818C12.5279 35.0741 13.4027 34.8902 14.216 34.5408C15.0294 34.1914 15.765 33.6835 16.38 33.0468L18.2167 31.2118M16.9533 23.0468C18.2035 24.2966 19.8989 24.9987 21.6667 24.9987C23.4344 24.9987 25.1298 24.2966 26.38 23.0468L33.0467 16.3801C34.261 15.1228 34.933 13.4387 34.9178 11.6908C34.9026 9.94279 34.2015 8.27071 32.9655 7.03465C31.7294 5.7986 30.0573 5.09747 28.3093 5.08228C26.5614 5.06709 24.8773 5.73906 23.62 6.95344L21.7867 8.78678" stroke="url(#paint0_linear_1793_19222)" stroke-width="2.5" stroke-linecap="round" stroke-linejoin="round"/>
<defs>
<linearGradient id="paint0_linear_1793_19222" x1="38.2733" y1="20.082" x2="-1.58117" y2="22.4053" gradientUnits="userSpaceOnUse">
<stop stop-color="#5CB170"/>
<stop offset="1" stop-color="#D6DE6D"/>
</linearGradient>
</defs>
</svg>
