<svg width="40" height="41" viewBox="0 0 40 41" fill="none" xmlns="http://www.w3.org/2000/svg">
<path fill-rule="evenodd" clip-rule="evenodd" d="M12.5341 7.77495C13.8207 7.67224 15.042 7.16622 16.0241 6.32895C17.1335 5.38414 18.543 4.86523 20.0001 4.86523C21.4573 4.86523 22.8668 5.38414 23.9761 6.32895C24.9583 7.16622 26.1796 7.67224 27.4661 7.77495C28.919 7.89107 30.283 8.52088 31.3136 9.55148C32.3442 10.5821 32.974 11.9461 33.0901 13.399C33.1921 14.685 33.6981 15.907 34.5361 16.889C35.481 17.9983 35.9999 19.4078 35.9999 20.865C35.9999 22.3221 35.481 23.7316 34.5361 24.841C33.6989 25.8231 33.1929 27.0444 33.0901 28.331C32.974 29.7838 32.3442 31.1478 31.3136 32.1784C30.283 33.209 28.919 33.8388 27.4661 33.955C26.1796 34.0577 24.9583 34.5637 23.9761 35.401C22.8668 36.3458 21.4573 36.8647 20.0001 36.8647C18.543 36.8647 17.1335 36.3458 16.0241 35.401C15.042 34.5637 13.8207 34.0577 12.5341 33.955C11.0813 33.8388 9.71728 33.209 8.68668 32.1784C7.65607 31.1478 7.02626 29.7838 6.91015 28.331C6.80743 27.0444 6.30141 25.8231 5.46415 24.841C4.51933 23.7316 4.00043 22.3221 4.00043 20.865C4.00043 19.4078 4.51933 17.9983 5.46415 16.889C6.30141 15.9068 6.80743 14.6855 6.91015 13.399C7.02626 11.9461 7.65607 10.5821 8.68668 9.55148C9.71728 8.52088 11.0813 7.89107 12.5341 7.77495ZM27.4141 18.279C27.7785 17.9017 27.9801 17.3965 27.9755 16.8722C27.9709 16.3478 27.7606 15.8461 27.3898 15.4753C27.019 15.1045 26.5173 14.8942 25.9929 14.8896C25.4686 14.885 24.9634 15.0866 24.5861 15.451L18.0001 22.037L15.4141 19.451C15.0369 19.0866 14.5317 18.885 14.0073 18.8896C13.483 18.8942 12.9813 19.1045 12.6105 19.4753C12.2397 19.8461 12.0294 20.3478 12.0248 20.8722C12.0202 21.3965 12.2218 21.9017 12.5861 22.279L16.5861 26.279C16.9612 26.6539 17.4698 26.8645 18.0001 26.8645C18.5305 26.8645 19.0391 26.6539 19.4141 26.279L27.4141 18.279Z" fill="url(#paint0_linear_1793_19227)"/>
<defs>
<linearGradient id="paint0_linear_1793_19227" x1="39.5787" y1="20.865" x2="-2.93198" y2="23.3431" gradientUnits="userSpaceOnUse">
<stop stop-color="#5CB170"/>
<stop offset="1" stop-color="#D6DE6D"/>
</linearGradient>
</defs>
</svg>
